<svg width="223" height="66" viewBox="0 0 223 66" fill="none" xmlns="http://www.w3.org/2000/svg">
<path d="M31.2656 27.8594H25.9688C25.6581 27.8594 25.4062 28.1112 25.4062 28.4219V31.2344C25.4062 31.545 25.6581 31.7969 25.9688 31.7969H31.2656C31.5763 31.7969 31.8281 31.545 31.8281 31.2344V28.4219C31.8281 28.1112 31.5763 27.8594 31.2656 27.8594Z" fill="#C59FB4"/>
<path d="M31.2656 27.8594H29.3906C29.5398 27.8594 29.6829 27.9186 29.7884 28.0241C29.8939 28.1296 29.9531 28.2727 29.9531 28.4219V31.2344C29.9531 31.3836 29.8939 31.5266 29.7884 31.6321C29.6829 31.7376 29.5398 31.7969 29.3906 31.7969H31.2656C31.4148 31.7969 31.5579 31.7376 31.6634 31.6321C31.7689 31.5266 31.8281 31.3836 31.8281 31.2344V28.4219C31.8281 28.2727 31.7689 28.1296 31.6634 28.0241C31.5579 27.9186 31.4148 27.8594 31.2656 27.8594Z" fill="#C59FB4"/>
<path d="M36.0469 27.8594H42.5156C42.6648 27.8594 42.8079 27.9186 42.9134 28.0241C43.0189 28.1296 43.0781 28.2727 43.0781 28.4219V31.2344C43.0781 31.3836 43.0189 31.5266 42.9134 31.6321C42.8079 31.7376 42.6648 31.7969 42.5156 31.7969H36.0469V27.8594Z" fill="#C59FB4"/>
<path d="M42.5156 27.8594H40.6406C40.7898 27.8594 40.9329 27.9186 41.0384 28.0241C41.1439 28.1296 41.2031 28.2727 41.2031 28.4219V31.2344C41.2031 31.3836 41.1439 31.5266 41.0384 31.6321C40.9329 31.7376 40.7898 31.7969 40.6406 31.7969H42.5156C42.6648 31.7969 42.8079 31.7376 42.9134 31.6321C43.0189 31.5266 43.0781 31.3836 43.0781 31.2344V28.4219C43.0781 28.2727 43.0189 28.1296 42.9134 28.0241C42.8079 27.9186 42.6648 27.8594 42.5156 27.8594Z" fill="#C59FB4"/>
<path d="M36.9844 27.8594H36.0469V31.7969H36.9844V27.8594Z" fill="#C59FB4"/>
<path d="M36.0469 36.0156H42.5156C42.6648 36.0156 42.8079 36.0749 42.9134 36.1804C43.0189 36.2859 43.0781 36.4289 43.0781 36.5781V39.3906C43.0781 39.5398 43.0189 39.6829 42.9134 39.7884C42.8079 39.8939 42.6648 39.9531 42.5156 39.9531H36.0469V36.0156Z" fill="#C59FB4"/>
<path d="M42.5156 36.0156H40.6406C40.7898 36.0156 40.9329 36.0749 41.0384 36.1804C41.1439 36.2859 41.2031 36.4289 41.2031 36.5781V39.3906C41.2031 39.5398 41.1439 39.6829 41.0384 39.7884C40.9329 39.8939 40.7898 39.9531 40.6406 39.9531H42.5156C42.6648 39.9531 42.8079 39.8939 42.9134 39.7884C43.0189 39.6829 43.0781 39.5398 43.0781 39.3906V36.5781C43.0781 36.4289 43.0189 36.2859 42.9134 36.1804C42.8079 36.0749 42.6648 36.0156 42.5156 36.0156Z" fill="#C59FB4"/>
<path d="M36.9844 36.0156H36.0469V39.9531H36.9844V36.0156Z" fill="#C59FB4"/>
<path d="M5.48438 27.8594H11.9531V31.7969H5.48438C5.33519 31.7969 5.19212 31.7376 5.08663 31.6321C4.98114 31.5266 4.92188 31.3836 4.92188 31.2344V28.4219C4.92188 28.2727 4.98114 28.1296 5.08663 28.0241C5.19212 27.9186 5.33519 27.8594 5.48438 27.8594ZM5.48438 36.0156H11.9531V39.9531H5.48438C5.33519 39.9531 5.19212 39.8939 5.08663 39.7884C4.98114 39.6829 4.92188 39.5398 4.92188 39.3906V36.5781C4.92188 36.4289 4.98114 36.2859 5.08663 36.1804C5.19212 36.0749 5.33519 36.0156 5.48438 36.0156Z" fill="#C59FB4"/>
<path d="M22.0312 27.8594H16.7344C16.4237 27.8594 16.1719 28.1112 16.1719 28.4219V31.2344C16.1719 31.545 16.4237 31.7969 16.7344 31.7969H22.0312C22.3419 31.7969 22.5938 31.545 22.5938 31.2344V28.4219C22.5938 28.1112 22.3419 27.8594 22.0312 27.8594Z" fill="#C59FB4"/>
<path d="M22.0312 27.8594H20.1562C20.3054 27.8594 20.4485 27.9186 20.554 28.0241C20.6595 28.1296 20.7188 28.2727 20.7188 28.4219V31.2344C20.7187 31.3836 20.6595 31.5266 20.554 31.6321C20.4485 31.7376 20.3054 31.7969 20.1562 31.7969H22.0312C22.1804 31.7969 22.3235 31.7376 22.429 31.6321C22.5345 31.5266 22.5938 31.3836 22.5938 31.2344V28.4219C22.5938 28.2727 22.5345 28.1296 22.429 28.0241C22.3235 27.9186 22.1804 27.8594 22.0312 27.8594Z" fill="#C59FB4"/>
<path d="M31.2656 36.0156H25.9688C25.6581 36.0156 25.4062 36.2675 25.4062 36.5781V39.3906C25.4062 39.7013 25.6581 39.9531 25.9688 39.9531H31.2656C31.5763 39.9531 31.8281 39.7013 31.8281 39.3906V36.5781C31.8281 36.2675 31.5763 36.0156 31.2656 36.0156Z" fill="#C59FB4"/>
<path d="M22.0312 36.0156H16.7344C16.4237 36.0156 16.1719 36.2675 16.1719 36.5781V39.3906C16.1719 39.7013 16.4237 39.9531 16.7344 39.9531H22.0312C22.3419 39.9531 22.5938 39.7013 22.5938 39.3906V36.5781C22.5938 36.2675 22.3419 36.0156 22.0312 36.0156Z" fill="#C59FB4"/>
<path d="M22.0312 36.0156H20.1562C20.3054 36.0156 20.4485 36.0749 20.554 36.1804C20.6595 36.2859 20.7188 36.4289 20.7188 36.5781V39.3906C20.7187 39.5398 20.6595 39.6829 20.554 39.7884C20.4485 39.8939 20.3054 39.9531 20.1562 39.9531H22.0312C22.1804 39.9531 22.3235 39.8939 22.429 39.7884C22.5345 39.6829 22.5938 39.5398 22.5938 39.3906V36.5781C22.5938 36.4289 22.5345 36.2859 22.429 36.1804C22.3235 36.0749 22.1804 36.0156 22.0312 36.0156Z" fill="#C59FB4"/>
<path d="M11.9531 20.8281H11.0156V54.2969H11.9531V20.8281Z" fill="#DEDEDE"/>
<path d="M11.9531 27.8594H11.0156V31.7969H11.9531V27.8594Z" fill="#C59FB4"/>
<path d="M11.9531 36.0156H11.0156V39.9531H11.9531V36.0156Z" fill="#C59FB4"/>
<path d="M31.2656 36.0156H29.3906C29.5398 36.0156 29.6829 36.0749 29.7884 36.1804C29.8939 36.2859 29.9531 36.4289 29.9531 36.5781V39.3906C29.9531 39.5398 29.8939 39.6829 29.7884 39.7884C29.6829 39.8939 29.5398 39.9531 29.3906 39.9531H31.2656C31.4148 39.9531 31.5579 39.8939 31.6634 39.7884C31.7689 39.6829 31.8281 39.5398 31.8281 39.3906V36.5781C31.8281 36.4289 31.7689 36.2859 31.6634 36.1804C31.5579 36.0749 31.4148 36.0156 31.2656 36.0156Z" fill="#C59FB4"/>
<path d="M20.4375 17.3125H21.8906V18.7656C21.8911 19.2006 22.0641 19.6176 22.3717 19.9252C22.6793 20.2327 23.0963 20.4058 23.5312 20.4062H24.4688C24.9037 20.4058 25.3207 20.2327 25.6283 19.9252C25.9359 19.6176 26.1089 19.2006 26.1094 18.7656V17.3125H27.5625C27.9975 17.312 28.4145 17.139 28.722 16.8314C29.0296 16.5239 29.2026 16.1068 29.2031 15.6719V14.7344C29.2026 14.2994 29.0296 13.8824 28.722 13.5748C28.4145 13.2673 27.9975 13.0942 27.5625 13.0938H26.1094V11.6406C26.1089 11.2057 25.9359 10.7886 25.6283 10.4811C25.3207 10.1735 24.9037 10.0005 24.4688 10H23.5312C23.0963 10.0005 22.6793 10.1735 22.3717 10.4811C22.0641 10.7886 21.8911 11.2057 21.8906 11.6406V13.0938H20.4375C20.0025 13.0942 19.5855 13.2673 19.278 13.5748C18.9704 13.8824 18.7974 14.2994 18.7969 14.7344V15.6719C18.7974 16.1068 18.9704 16.5239 19.278 16.8314C19.5855 17.139 20.0025 17.312 20.4375 17.3125ZM20.2031 14.7344C20.2032 14.6722 20.2279 14.6127 20.2719 14.5687C20.3158 14.5248 20.3754 14.5001 20.4375 14.5H22.5938C22.7802 14.5 22.9591 14.4259 23.0909 14.2941C23.2228 14.1622 23.2969 13.9834 23.2969 13.7969V11.6406C23.2969 11.5785 23.3217 11.5189 23.3656 11.475C23.4095 11.431 23.4691 11.4063 23.5312 11.4062H24.4688C24.5309 11.4063 24.5905 11.431 24.6344 11.475C24.6783 11.5189 24.7031 11.5785 24.7031 11.6406V13.7969C24.7031 13.9834 24.7772 14.1622 24.9091 14.2941C25.0409 14.4259 25.2198 14.5 25.4062 14.5H27.5625C27.6246 14.5001 27.6842 14.5248 27.7281 14.5687C27.7721 14.6127 27.7968 14.6722 27.7969 14.7344V15.6719C27.7968 15.734 27.7721 15.7936 27.7281 15.8375C27.6842 15.8815 27.6246 15.9062 27.5625 15.9062H25.4062C25.2198 15.9063 25.0409 15.9803 24.9091 16.1122C24.7772 16.2441 24.7031 16.4229 24.7031 16.6094V18.7656C24.7031 18.8278 24.6783 18.8873 24.6344 18.9313C24.5905 18.9752 24.5309 18.9999 24.4688 19H23.5312C23.4691 18.9999 23.4095 18.9752 23.3656 18.9313C23.3217 18.8873 23.2969 18.8278 23.2969 18.7656V16.6094C23.2969 16.4229 23.2228 16.2441 23.0909 16.1122C22.9591 15.9803 22.7802 15.9063 22.5938 15.9062H20.4375C20.3754 15.9062 20.3158 15.8815 20.2719 15.8375C20.2279 15.7936 20.2032 15.734 20.2031 15.6719V14.7344ZM44.4844 20.125H36.75V19.4219C36.749 18.4898 36.3782 17.5962 35.7191 16.9371C35.0601 16.278 34.1665 15.9073 33.2344 15.9062H32.0747C32.0943 15.6744 32.1048 15.44 32.1048 15.2031C32.1048 10.6799 28.469 7 24 7C19.531 7 15.8952 10.6799 15.8952 15.2031C15.8952 15.44 15.9057 15.6744 15.9253 15.9062H14.7656C13.8335 15.9073 12.9399 16.278 12.2809 16.9371C11.6218 17.5962 11.251 18.4898 11.25 19.4219V20.125H3.51562C2.58355 20.126 1.68994 20.4968 1.03086 21.1559C0.371781 21.8149 0.00104887 22.7085 0 23.6406L0 51.4844C0.00104887 52.4165 0.371781 53.3101 1.03086 53.9691C1.68994 54.6282 2.58355 54.999 3.51562 55H44.4844C45.4165 54.999 46.3101 54.6282 46.9691 53.9691C47.6282 53.3101 47.999 52.4165 48 51.4844V23.6406C47.999 22.7085 47.6282 21.8149 46.9691 21.1559C46.3101 20.4968 45.4165 20.126 44.4844 20.125ZM11.25 39.25H5.625V36.7188H11.25V39.25ZM11.25 31.0938H5.625V28.5625H11.25V31.0938ZM11.25 27.1562H5.48438C5.14883 27.1566 4.82713 27.2901 4.58986 27.5274C4.3526 27.7646 4.21913 28.0863 4.21875 28.4219V31.2344C4.21913 31.5699 4.3526 31.8916 4.58986 32.1289C4.82713 32.3662 5.14883 32.4996 5.48438 32.5H11.25V35.3125H5.48438C5.14883 35.3129 4.82713 35.4463 4.58986 35.6836C4.3526 35.9209 4.21913 36.2426 4.21875 36.5781V39.3906C4.21913 39.7262 4.3526 40.0479 4.58986 40.2851C4.82713 40.5224 5.14883 40.6559 5.48438 40.6562H11.25V53.5938H3.51562C2.95638 53.5931 2.42021 53.3707 2.02476 52.9752C1.62931 52.5798 1.40688 52.0436 1.40625 51.4844V23.6406C1.40688 23.0814 1.62931 22.5452 2.02476 22.1498C2.42021 21.7543 2.95638 21.5319 3.51562 21.5312H11.25V27.1562ZM24 8.40625C27.6936 8.40625 30.6986 11.4553 30.6986 15.2031C30.6986 18.9509 27.6936 22 24 22C20.3064 22 17.3014 18.9509 17.3014 15.2031C17.3014 11.4553 20.3064 8.40625 24 8.40625ZM27.1875 53.5938H20.8125V45.5781C20.8127 45.3917 20.8868 45.213 21.0187 45.0812C21.1505 44.9493 21.3292 44.8752 21.5156 44.875H26.4844C26.6708 44.8752 26.8495 44.9493 26.9813 45.0812C27.1132 45.213 27.1873 45.3917 27.1875 45.5781V53.5938ZM35.3438 53.5938H28.5938V45.5781C28.5931 45.0189 28.3707 44.4827 27.9752 44.0873C27.5798 43.6918 27.0436 43.4694 26.4844 43.4688H21.5156C20.9564 43.4694 20.4202 43.6918 20.0248 44.0873C19.6293 44.4827 19.4069 45.0189 19.4062 45.5781V53.5938H12.6562V19.4219C12.6569 18.8626 12.8793 18.3265 13.2748 17.931C13.6702 17.5356 14.2064 17.3131 14.7656 17.3125H16.1673C17.0894 20.8168 20.2513 23.4062 24 23.4062C27.7487 23.4062 30.9106 20.8168 31.8327 17.3125H33.2344C33.7936 17.3131 34.3298 17.5356 34.7252 17.931C35.1207 18.3265 35.3431 18.8626 35.3438 19.4219V53.5938ZM36.75 28.5625H42.375V31.0938H36.75V28.5625ZM36.75 36.7188H42.375V39.25H36.75V36.7188ZM46.5938 51.4844C46.5931 52.0436 46.3707 52.5798 45.9752 52.9752C45.5798 53.3707 45.0436 53.5931 44.4844 53.5938H36.75V40.6562H42.5156C42.8512 40.6559 43.1729 40.5224 43.4101 40.2851C43.6474 40.0479 43.7809 39.7262 43.7812 39.3906V36.5781C43.7809 36.2426 43.6474 35.9209 43.4101 35.6836C43.1729 35.4463 42.8512 35.3129 42.5156 35.3125H36.75V32.5H42.5156C42.8512 32.4996 43.1729 32.3662 43.4101 32.1289C43.6474 31.8916 43.7809 31.5699 43.7812 31.2344V28.4219C43.7809 28.0863 43.6474 27.7646 43.4101 27.5274C43.1729 27.2901 42.8512 27.1566 42.5156 27.1562H36.75V21.5312H44.4844C45.0436 21.5319 45.5798 21.7543 45.9752 22.1498C46.3707 22.5452 46.5931 23.0814 46.5938 23.6406V51.4844ZM31.2656 27.1562H25.9688C25.6332 27.1566 25.3115 27.2901 25.0742 27.5274C24.837 27.7646 24.7035 28.0863 24.7031 28.4219V31.2344C24.7035 31.5699 24.837 31.8916 25.0742 32.1289C25.3115 32.3662 25.6332 32.4996 25.9688 32.5H31.2656C31.6012 32.4996 31.9229 32.3662 32.1601 32.1289C32.3974 31.8916 32.5309 31.5699 32.5312 31.2344V28.4219C32.5309 28.0863 32.3974 27.7646 32.1601 27.5274C31.9229 27.2901 31.6012 27.1566 31.2656 27.1562ZM31.125 31.0938H26.1094V28.5625H31.125V31.0938ZM31.2656 35.3125H25.9688C25.6332 35.3129 25.3115 35.4463 25.0742 35.6836C24.837 35.9209 24.7035 36.2426 24.7031 36.5781V39.3906C24.7035 39.7262 24.837 40.0479 25.0742 40.2851C25.3115 40.5224 25.6332 40.6559 25.9688 40.6562H31.2656C31.6012 40.6559 31.9229 40.5224 32.1601 40.2851C32.3974 40.0479 32.5309 39.7262 32.5312 39.3906V36.5781C32.5309 36.2426 32.3974 35.9209 32.1601 35.6836C31.9229 35.4463 31.6012 35.3129 31.2656 35.3125ZM31.125 39.25H26.1094V36.7188H31.125V39.25ZM22.0312 35.3125H16.7344C16.3988 35.3129 16.0771 35.4463 15.8399 35.6836C15.6026 35.9209 15.4691 36.2426 15.4688 36.5781V39.3906C15.4691 39.7262 15.6026 40.0479 15.8399 40.2851C16.0771 40.5224 16.3988 40.6559 16.7344 40.6562H22.0312C22.3668 40.6559 22.6885 40.5224 22.9258 40.2851C23.163 40.0479 23.2965 39.7262 23.2969 39.3906V36.5781C23.2965 36.2426 23.163 35.9209 22.9258 35.6836C22.6885 35.4463 22.3668 35.3129 22.0312 35.3125ZM21.8906 39.25H16.875V36.7188H21.8906V39.25ZM22.0312 27.1562H16.7344C16.3988 27.1566 16.0771 27.2901 15.8399 27.5274C15.6026 27.7646 15.4691 28.0863 15.4688 28.4219V31.2344C15.4691 31.5699 15.6026 31.8916 15.8399 32.1289C16.0771 32.3662 16.3988 32.4996 16.7344 32.5H22.0312C22.3668 32.4996 22.6885 32.3662 22.9258 32.1289C23.163 31.8916 23.2965 31.5699 23.2969 31.2344V28.4219C23.2965 28.0863 23.163 27.7646 22.9258 27.5274C22.6885 27.2901 22.3668 27.1566 22.0312 27.1562ZM21.8906 31.0938H16.875V28.5625H21.8906V31.0938Z" fill="#313440"/>
<g filter="url(#filter0_d_10_7)">
<rect x="59" width="159" height="31" rx="9" fill="#E5D3D3" shape-rendering="crispEdges"/>
<rect x="59.5" y="0.5" width="158" height="30" rx="8.5" stroke="#F0E4E4" shape-rendering="crispEdges"/>
<path d="M76.492 18.588C76.604 18.636 76.716 18.692 76.828 18.756C76.956 18.82 77.076 18.876 77.188 18.924C76.58 20.54 75.74 21.74 74.668 22.524C73.532 23.436 72.204 23.892 70.684 23.892C69.58 23.892 68.58 23.676 67.684 23.244C66.788 22.812 66.004 22.18 65.332 21.348C64.1 19.7 63.484 17.66 63.484 15.228C63.484 12.748 64.1 10.676 65.332 9.012C66.628 7.3 68.292 6.444 70.324 6.444C71.604 6.444 72.7 6.684 73.612 7.164C73.836 7.068 74.068 6.98 74.308 6.9C74.548 6.804 74.78 6.716 75.004 6.636C75.308 7.372 75.604 8.1 75.892 8.82C76.196 9.54 76.5 10.268 76.804 11.004C76.692 11.052 76.588 11.108 76.492 11.172C76.396 11.22 76.292 11.268 76.18 11.316C75.524 10.244 74.804 9.38 74.02 8.724C73.172 8.036 72.276 7.636 71.332 7.524C71.172 7.492 71.012 7.476 70.852 7.476C70.692 7.476 70.524 7.476 70.348 7.476C69.276 7.524 68.316 7.972 67.468 8.82C67.18 9.108 66.916 9.42 66.676 9.756C65.684 11.18 65.188 12.956 65.188 15.084C65.188 17.164 65.716 18.9 66.772 20.292C66.916 20.468 67.06 20.636 67.204 20.796C67.364 20.956 67.516 21.1 67.66 21.228C68.156 21.724 68.692 22.084 69.268 22.308C69.86 22.532 70.492 22.644 71.164 22.644C72.204 22.644 73.196 22.268 74.14 21.516C75.148 20.7 75.932 19.724 76.492 18.588ZM89.2476 18.084C89.2476 19.876 88.7356 21.308 87.7116 22.38C86.7356 23.452 85.4876 23.988 83.9676 23.988C82.4316 23.988 81.1756 23.452 80.1996 22.38C79.1756 21.308 78.6636 19.876 78.6636 18.084C78.6636 16.292 79.1756 14.86 80.1996 13.788C81.1756 12.716 82.4316 12.18 83.9676 12.18C85.4876 12.18 86.7356 12.716 87.7116 13.788C88.7356 14.86 89.2476 16.292 89.2476 18.084ZM87.6156 18.084C87.6156 16.612 87.2636 15.404 86.5596 14.46C85.9036 13.516 85.0396 13.044 83.9676 13.044C82.9116 13.044 82.0316 13.516 81.3276 14.46C80.6396 15.404 80.2956 16.612 80.2956 18.084C80.2956 19.54 80.6316 20.748 81.3036 21.708C81.9916 22.636 82.8796 23.1 83.9676 23.1C85.0076 23.1 85.8716 22.636 86.5596 21.708C87.2636 20.764 87.6156 19.556 87.6156 18.084ZM99.4504 13.284C99.4504 14.116 99.0824 14.532 98.3464 14.532C98.0424 14.532 97.7064 14.396 97.3384 14.124C97.0664 13.9 96.7704 13.788 96.4504 13.788C96.0344 13.788 95.5144 14.028 94.8904 14.508C94.3944 14.892 93.9144 15.332 93.4504 15.828V21.636C93.4504 22.084 93.5304 22.38 93.6904 22.524C93.8664 22.684 94.3064 22.764 95.0104 22.764V23.532H90.4504V22.764C90.8664 22.764 91.1864 22.732 91.4104 22.668C91.6344 22.604 91.7864 22.508 91.8664 22.38C91.9464 22.252 91.9864 22.052 91.9864 21.78V14.772C91.9864 14.452 91.9304 14.236 91.8184 14.124C91.7544 14.06 91.6184 13.988 91.4104 13.908C91.1864 13.86 90.9144 13.836 90.5944 13.836C90.5624 13.756 90.5384 13.676 90.5224 13.596C90.5064 13.516 90.4824 13.436 90.4504 13.356C90.9624 13.148 91.4664 12.948 91.9624 12.756C92.4584 12.548 92.9544 12.34 93.4504 12.132V14.604C93.8344 14.236 94.2184 13.9 94.6024 13.596C94.9864 13.292 95.3624 13.036 95.7304 12.828C96.5304 12.364 97.3064 12.132 98.0584 12.132C98.9864 12.132 99.4504 12.516 99.4504 13.284ZM111.451 17.988C111.451 19.78 110.947 21.204 109.939 22.26C108.995 23.22 107.843 23.7 106.483 23.7C105.123 23.7 104.075 23.38 103.339 22.74V25.14C103.339 25.556 103.451 25.86 103.675 26.052C103.947 26.26 104.347 26.364 104.875 26.364V27.156H100.315V26.364C100.955 26.364 101.387 26.26 101.611 26.052C101.771 25.892 101.851 25.588 101.851 25.14V14.796C101.851 14.716 101.835 14.596 101.803 14.436C101.787 14.308 101.739 14.204 101.659 14.124C101.499 13.964 101.083 13.884 100.411 13.884C100.395 13.804 100.379 13.716 100.363 13.62C100.363 13.524 100.355 13.436 100.339 13.356C100.851 13.18 101.355 13.004 101.851 12.828C102.347 12.636 102.843 12.452 103.339 12.276V13.236C104.171 12.596 105.243 12.276 106.555 12.276C107.979 12.276 109.139 12.772 110.035 13.764C110.979 14.852 111.451 16.26 111.451 17.988ZM109.843 18.012C109.843 16.62 109.483 15.492 108.763 14.628C108.059 13.732 107.147 13.284 106.027 13.284C104.907 13.284 104.011 13.644 103.339 14.364V21.54C104.011 22.308 104.907 22.692 106.027 22.692C107.083 22.692 107.971 22.26 108.691 21.396C109.459 20.484 109.843 19.356 109.843 18.012ZM123.326 18.084C123.326 19.876 122.814 21.308 121.79 22.38C120.814 23.452 119.566 23.988 118.046 23.988C116.51 23.988 115.254 23.452 114.278 22.38C113.254 21.308 112.742 19.876 112.742 18.084C112.742 16.292 113.254 14.86 114.278 13.788C115.254 12.716 116.51 12.18 118.046 12.18C119.566 12.18 120.814 12.716 121.79 13.788C122.814 14.86 123.326 16.292 123.326 18.084ZM121.694 18.084C121.694 16.612 121.342 15.404 120.638 14.46C119.982 13.516 119.118 13.044 118.046 13.044C116.99 13.044 116.11 13.516 115.406 14.46C114.718 15.404 114.374 16.612 114.374 18.084C114.374 19.54 114.71 20.748 115.382 21.708C116.07 22.636 116.958 23.1 118.046 23.1C119.086 23.1 119.95 22.636 120.638 21.708C121.342 20.764 121.694 19.556 121.694 18.084ZM141.383 20.652C141.463 20.716 141.543 20.78 141.623 20.844C141.719 20.908 141.807 20.972 141.887 21.036C141.503 21.612 141.079 22.092 140.615 22.476C140.151 22.86 139.655 23.18 139.127 23.436C138.407 23.788 137.631 23.964 136.799 23.964C135.215 23.964 133.919 23.46 132.911 22.452C131.839 21.38 131.303 19.932 131.303 18.108C131.303 16.348 131.815 14.932 132.839 13.86C133.847 12.756 135.127 12.204 136.679 12.204C138.231 12.204 139.455 12.652 140.351 13.548C141.311 14.46 141.791 15.78 141.791 17.508C140.303 17.556 138.839 17.612 137.399 17.676C135.959 17.724 134.487 17.772 132.983 17.82C132.983 17.884 132.975 17.948 132.959 18.012C132.959 18.06 132.959 18.116 132.959 18.18C132.959 18.852 133.047 19.46 133.223 20.004C133.415 20.548 133.687 21.036 134.039 21.468C134.775 22.428 135.807 22.908 137.135 22.908C137.839 22.908 138.575 22.724 139.343 22.356C139.695 22.148 140.039 21.908 140.375 21.636C140.727 21.348 141.063 21.02 141.383 20.652ZM133.031 16.908C134.231 16.876 135.415 16.836 136.583 16.788C137.751 16.74 138.935 16.7 140.135 16.668C140.119 15.612 139.791 14.764 139.151 14.124C138.495 13.42 137.671 13.068 136.679 13.068C135.719 13.068 134.879 13.452 134.159 14.22C133.487 14.924 133.111 15.82 133.031 16.908ZM168.539 23.532H162.827V22.764C163.739 22.764 164.347 22.636 164.651 22.38C164.907 22.14 165.035 21.788 165.035 21.324V8.34C164.027 10.932 163.035 13.492 162.059 16.02C161.099 18.532 160.131 21.084 159.155 23.676H158.411C157.451 21.132 156.515 18.612 155.603 16.116C154.691 13.604 153.755 11.068 152.795 8.508V21.324C152.795 21.852 152.931 22.228 153.203 22.452C153.523 22.66 154.075 22.764 154.859 22.764V23.532H149.939V22.764C150.723 22.764 151.235 22.676 151.475 22.5C151.731 22.308 151.859 22.012 151.859 21.612V8.892C151.859 8.428 151.731 8.1 151.475 7.908C151.219 7.7 150.715 7.596 149.963 7.596V6.804H153.947C154.811 9.172 155.675 11.508 156.539 13.812C157.419 16.116 158.291 18.46 159.155 20.844C160.019 18.46 160.883 16.116 161.747 13.812C162.627 11.508 163.499 9.172 164.363 6.804H168.539V7.596C167.611 7.596 167.043 7.7 166.835 7.908C166.659 8.132 166.571 8.436 166.571 8.82V21.324C166.571 21.82 166.675 22.172 166.883 22.38C167.187 22.636 167.739 22.764 168.539 22.764V23.532ZM179.961 20.652C180.041 20.716 180.121 20.78 180.201 20.844C180.297 20.908 180.385 20.972 180.465 21.036C180.081 21.612 179.657 22.092 179.193 22.476C178.729 22.86 178.233 23.18 177.705 23.436C176.985 23.788 176.209 23.964 175.377 23.964C173.793 23.964 172.497 23.46 171.489 22.452C170.417 21.38 169.881 19.932 169.881 18.108C169.881 16.348 170.393 14.932 171.417 13.86C172.425 12.756 173.705 12.204 175.257 12.204C176.809 12.204 178.033 12.652 178.929 13.548C179.889 14.46 180.369 15.78 180.369 17.508C178.881 17.556 177.417 17.612 175.977 17.676C174.537 17.724 173.065 17.772 171.561 17.82C171.561 17.884 171.553 17.948 171.537 18.012C171.537 18.06 171.537 18.116 171.537 18.18C171.537 18.852 171.625 19.46 171.801 20.004C171.993 20.548 172.265 21.036 172.617 21.468C173.353 22.428 174.385 22.908 175.713 22.908C176.417 22.908 177.153 22.724 177.921 22.356C178.273 22.148 178.617 21.908 178.953 21.636C179.305 21.348 179.641 21.02 179.961 20.652ZM171.609 16.908C172.809 16.876 173.993 16.836 175.161 16.788C176.329 16.74 177.513 16.7 178.713 16.668C178.697 15.612 178.369 14.764 177.729 14.124C177.073 13.42 176.249 13.068 175.257 13.068C174.297 13.068 173.457 13.452 172.737 14.22C172.065 14.924 171.689 15.82 171.609 16.908ZM193.286 23.532H188.606V22.764C189.166 22.764 189.558 22.692 189.782 22.548C190.054 22.372 190.19 22.028 190.19 21.516V15.492C190.19 14.148 189.558 13.476 188.294 13.476C187.542 13.476 186.91 13.604 186.398 13.86C186.174 13.972 185.91 14.124 185.606 14.316C185.302 14.492 184.966 14.708 184.598 14.964V21.516C184.598 21.996 184.702 22.316 184.91 22.476C185.038 22.556 185.214 22.62 185.438 22.668C185.662 22.732 185.934 22.764 186.254 22.764V23.532H181.574V22.764C182.182 22.764 182.622 22.668 182.894 22.476C183.054 22.316 183.134 21.996 183.134 21.516V14.892C183.134 14.46 183.054 14.188 182.894 14.076C182.67 13.9 182.262 13.812 181.67 13.812C181.638 13.732 181.614 13.644 181.598 13.548C181.598 13.452 181.582 13.364 181.55 13.284C182.062 13.108 182.566 12.932 183.062 12.756C183.574 12.58 184.086 12.404 184.598 12.228V13.932C185.958 12.812 187.342 12.252 188.75 12.252C189.726 12.252 190.454 12.532 190.934 13.092C191.414 13.668 191.654 14.484 191.654 15.54V21.492C191.654 21.988 191.75 22.316 191.942 22.476C192.07 22.556 192.246 22.62 192.47 22.668C192.694 22.732 192.966 22.764 193.286 22.764V23.532ZM201.023 21.18C201.103 21.244 201.175 21.3 201.239 21.348C201.319 21.396 201.399 21.444 201.479 21.492C201.191 22.164 200.799 22.724 200.303 23.172C199.743 23.7 199.135 23.964 198.479 23.964C197.615 23.964 196.959 23.652 196.511 23.028C196.383 22.804 196.279 22.548 196.199 22.26C196.119 21.972 196.079 21.652 196.079 21.3V13.356H194.207V12.588C195.071 12.588 195.711 12.26 196.127 11.604C196.591 10.852 196.823 9.78 196.823 8.388H197.543V12.42H200.687V13.356H197.543V21.468C197.543 22.316 197.991 22.74 198.887 22.74C199.607 22.74 200.319 22.22 201.023 21.18ZM212.61 20.652C212.69 20.716 212.77 20.78 212.85 20.844C212.946 20.908 213.034 20.972 213.114 21.036C212.73 21.612 212.306 22.092 211.842 22.476C211.378 22.86 210.882 23.18 210.354 23.436C209.634 23.788 208.858 23.964 208.026 23.964C206.442 23.964 205.146 23.46 204.138 22.452C203.066 21.38 202.53 19.932 202.53 18.108C202.53 16.348 203.042 14.932 204.066 13.86C205.074 12.756 206.354 12.204 207.906 12.204C209.458 12.204 210.682 12.652 211.578 13.548C212.538 14.46 213.018 15.78 213.018 17.508C211.53 17.556 210.066 17.612 208.626 17.676C207.186 17.724 205.714 17.772 204.21 17.82C204.21 17.884 204.202 17.948 204.186 18.012C204.186 18.06 204.186 18.116 204.186 18.18C204.186 18.852 204.274 19.46 204.45 20.004C204.642 20.548 204.914 21.036 205.266 21.468C206.002 22.428 207.034 22.908 208.362 22.908C209.066 22.908 209.802 22.724 210.57 22.356C210.922 22.148 211.266 21.908 211.602 21.636C211.954 21.348 212.29 21.02 212.61 20.652ZM204.258 16.908C205.458 16.876 206.642 16.836 207.81 16.788C208.978 16.74 210.162 16.7 211.362 16.668C211.346 15.612 211.018 14.764 210.378 14.124C209.722 13.42 208.898 13.068 207.906 13.068C206.946 13.068 206.106 13.452 205.386 14.22C204.714 14.924 204.338 15.82 204.258 16.908Z" fill="black"/>
</g>
<path d="M67.291 52.5488C66.3405 52.5488 65.6374 52.2982 65.1816 51.7969C64.7259 51.2956 64.498 50.516 64.498 49.458C64.498 47.3975 65.4339 46.3672 67.3057 46.3672C67.5791 46.3672 67.8444 46.3965 68.1016 46.4551C68.3587 46.5104 68.5671 46.5804 68.7266 46.665C68.8861 46.7497 68.9658 46.8311 68.9658 46.9092C68.9658 46.958 68.9479 47.0231 68.9121 47.1045C68.8796 47.1859 68.8405 47.2575 68.7949 47.3193C68.7493 47.3812 68.7087 47.4121 68.6729 47.4121C68.6566 47.4121 68.611 47.391 68.5361 47.3486C68.3669 47.2575 68.1895 47.181 68.0039 47.1191C67.8184 47.0573 67.5921 47.0264 67.3252 47.0264C66.6253 47.0264 66.1094 47.2217 65.7773 47.6123C65.4486 47.9997 65.2842 48.6182 65.2842 49.4678C65.2842 50.2979 65.4469 50.9098 65.7725 51.3037C66.1012 51.6943 66.6074 51.8896 67.291 51.8896C67.5775 51.8896 67.8232 51.8555 68.0283 51.7871C68.2334 51.7188 68.4303 51.6341 68.6191 51.5332C68.7103 51.4844 68.7656 51.46 68.7852 51.46C68.821 51.46 68.8617 51.4909 68.9072 51.5527C68.9561 51.6146 68.9984 51.6846 69.0342 51.7627C69.07 51.8376 69.0879 51.8913 69.0879 51.9238C69.0879 52.0052 69.0049 52.0964 68.8389 52.1973C68.6761 52.2949 68.4564 52.3779 68.1797 52.4463C67.9062 52.5146 67.61 52.5488 67.291 52.5488ZM71.4463 52.5488C71.0036 52.5488 70.6569 52.4251 70.4062 52.1777C70.1556 51.9271 70.0303 51.582 70.0303 51.1426V48.1348C70.0303 48.0078 70.1475 47.9443 70.3818 47.9443H70.416C70.6471 47.9443 70.7627 48.0078 70.7627 48.1348V51.0742C70.7627 51.3411 70.8392 51.5495 70.9922 51.6992C71.1484 51.8457 71.3665 51.9189 71.6465 51.9189C71.8418 51.9189 72.0371 51.8652 72.2324 51.7578C72.4277 51.6471 72.597 51.4974 72.7402 51.3086V48.1348C72.7402 48.0078 72.8558 47.9443 73.0869 47.9443H73.1211C73.3555 47.9443 73.4727 48.0078 73.4727 48.1348V51.2158C73.4727 51.5934 73.4889 51.8669 73.5215 52.0361C73.554 52.2021 73.5703 52.2933 73.5703 52.3096C73.5703 52.3812 73.5166 52.4333 73.4092 52.4658C73.3018 52.4951 73.2008 52.5098 73.1064 52.5098C73.0251 52.5098 72.9648 52.4642 72.9258 52.373C72.8867 52.2786 72.8574 52.1826 72.8379 52.085C72.8216 51.9873 72.8102 51.9255 72.8037 51.8994C72.6214 52.1045 72.4098 52.264 72.1689 52.3779C71.9313 52.4919 71.6904 52.5488 71.4463 52.5488ZM75.3184 46.8652C75.0872 46.8652 74.9717 46.8018 74.9717 46.6748V46.1621C74.9717 46.0352 75.0872 45.9717 75.3184 45.9717H75.4209C75.6553 45.9717 75.7725 46.0352 75.7725 46.1621V46.6748C75.7725 46.8018 75.6553 46.8652 75.4209 46.8652H75.3184ZM75.3525 52.5146C75.1214 52.5146 75.0059 52.4512 75.0059 52.3242V48.1348C75.0059 48.0078 75.1214 47.9443 75.3525 47.9443H75.3867C75.6211 47.9443 75.7383 48.0078 75.7383 48.1348V52.3242C75.7383 52.4512 75.6211 52.5146 75.3867 52.5146H75.3525ZM78.6533 52.5488C78.3148 52.5488 78.0186 52.4512 77.7646 52.2559C77.5107 52.0573 77.3138 51.7822 77.1738 51.4307C77.0371 51.0791 76.9688 50.6803 76.9688 50.2344C76.9688 49.7428 77.042 49.3229 77.1885 48.9746C77.3382 48.623 77.5465 48.3577 77.8135 48.1787C78.0804 47.9997 78.388 47.9102 78.7363 47.9102C78.987 47.9102 79.2083 47.9476 79.4004 48.0225C79.5957 48.0973 79.7878 48.2064 79.9766 48.3496V46.1621C79.9766 46.0352 80.0905 45.9717 80.3184 45.9717H80.3574C80.5885 45.9717 80.7041 46.0352 80.7041 46.1621V51.2158C80.7041 51.5934 80.722 51.8669 80.7578 52.0361C80.7936 52.2021 80.8115 52.2933 80.8115 52.3096C80.8115 52.3812 80.7562 52.4333 80.6455 52.4658C80.5381 52.4951 80.4372 52.5098 80.3428 52.5098C80.2777 52.5098 80.2256 52.4788 80.1865 52.417C80.1475 52.3551 80.1198 52.2933 80.1035 52.2314C80.0905 52.1663 80.0677 52.0557 80.0352 51.8994C79.6217 52.3324 79.1611 52.5488 78.6533 52.5488ZM78.8047 51.9189C78.9967 51.9189 79.1953 51.8669 79.4004 51.7627C79.6087 51.6585 79.8008 51.5104 79.9766 51.3184V48.9404C79.6641 48.68 79.3076 48.5498 78.9072 48.5498C78.5199 48.5596 78.2269 48.7012 78.0283 48.9746C77.833 49.248 77.7354 49.6452 77.7354 50.166C77.7354 50.7259 77.8265 51.1589 78.0088 51.4648C78.1943 51.7676 78.4596 51.9189 78.8047 51.9189ZM83.3408 52.5488C82.8981 52.5488 82.54 52.4398 82.2666 52.2217C81.9932 52.0036 81.8564 51.6797 81.8564 51.25C81.8564 50.7975 81.9948 50.4574 82.2715 50.2295C82.5482 49.9984 82.8851 49.8503 83.2822 49.7852C83.6826 49.7168 84.1676 49.6777 84.7373 49.668V49.2578C84.7373 49.0397 84.6624 48.8656 84.5127 48.7354C84.3662 48.6019 84.1237 48.5352 83.7852 48.5352C83.528 48.5352 83.3018 48.5661 83.1064 48.6279C82.9144 48.6865 82.7337 48.7581 82.5645 48.8428C82.4928 48.8786 82.4489 48.8965 82.4326 48.8965C82.3936 48.8965 82.3496 48.8688 82.3008 48.8135C82.2552 48.7549 82.2145 48.6898 82.1787 48.6182C82.1462 48.5465 82.1299 48.4945 82.1299 48.4619C82.1299 48.387 82.2064 48.3057 82.3594 48.2178C82.5156 48.1299 82.7191 48.0566 82.9697 47.998C83.2204 47.9395 83.4824 47.9102 83.7559 47.9102C84.2995 47.9102 84.721 48.029 85.0205 48.2666C85.32 48.5042 85.4697 48.8379 85.4697 49.2676V51.2158C85.4697 51.5934 85.486 51.8669 85.5186 52.0361C85.5544 52.2021 85.5723 52.2933 85.5723 52.3096C85.5723 52.3812 85.5169 52.4333 85.4062 52.4658C85.2988 52.4951 85.1979 52.5098 85.1035 52.5098C85.0254 52.5098 84.9668 52.4658 84.9277 52.3779C84.8919 52.29 84.8561 52.1631 84.8203 51.9971L84.8008 51.8994C84.6217 52.098 84.4102 52.2559 84.166 52.373C83.9251 52.4902 83.6501 52.5488 83.3408 52.5488ZM83.3799 51.9189C83.6663 51.9189 83.9105 51.8669 84.1123 51.7627C84.3141 51.6585 84.5225 51.5104 84.7373 51.3184V50.293C84.3076 50.2962 83.9544 50.3141 83.6777 50.3467C83.401 50.3792 83.1585 50.4622 82.9502 50.5957C82.7419 50.7259 82.6377 50.9294 82.6377 51.2061C82.6377 51.4372 82.6995 51.6146 82.8232 51.7383C82.9502 51.8587 83.1357 51.9189 83.3799 51.9189ZM91.5146 47.9102C91.876 47.9102 92.1934 48.0127 92.4668 48.2178C92.7402 48.4229 92.877 48.7874 92.877 49.3115V52.3242C92.877 52.3893 92.8493 52.4382 92.7939 52.4707C92.7386 52.5 92.6507 52.5146 92.5303 52.5146H92.501C92.3773 52.5146 92.2878 52.5 92.2324 52.4707C92.1771 52.4382 92.1494 52.3893 92.1494 52.3242V49.3848C92.1494 49.1211 92.0778 48.9144 91.9346 48.7646C91.7946 48.6149 91.5879 48.54 91.3145 48.54C91.0866 48.54 90.8799 48.6068 90.6943 48.7402C90.512 48.8704 90.3639 49.0072 90.25 49.1504C90.2565 49.2285 90.2598 49.2871 90.2598 49.3262V52.3242C90.2598 52.4512 90.1426 52.5146 89.9082 52.5146H89.874C89.6429 52.5146 89.5273 52.4512 89.5273 52.3242V49.3848C89.5273 49.1211 89.4557 48.9144 89.3125 48.7646C89.1725 48.6149 88.9658 48.54 88.6924 48.54C88.5036 48.54 88.3311 48.5856 88.1748 48.6768C88.0186 48.7646 87.8883 48.8607 87.7842 48.9648C87.6833 49.069 87.6328 49.1276 87.6328 49.1406V52.3242C87.6328 52.3893 87.6051 52.4382 87.5498 52.4707C87.4977 52.5 87.4115 52.5146 87.291 52.5146H87.252C87.1315 52.5146 87.0436 52.5 86.9883 52.4707C86.9362 52.4382 86.9102 52.3893 86.9102 52.3242V49.2773C86.9102 48.8997 86.8923 48.6279 86.8564 48.4619C86.8206 48.2926 86.8027 48.1999 86.8027 48.1836C86.8027 48.112 86.8564 48.0615 86.9639 48.0322C87.0745 47.9997 87.1771 47.9834 87.2715 47.9834C87.3529 47.9834 87.4131 48.0273 87.4521 48.1152C87.4912 48.2031 87.5189 48.2926 87.5352 48.3838C87.5547 48.4749 87.5677 48.5335 87.5742 48.5596C87.7337 48.374 87.929 48.2194 88.1602 48.0957C88.3913 47.972 88.6354 47.9102 88.8926 47.9102C89.1562 47.9102 89.402 47.9639 89.6299 48.0713C89.8577 48.1755 90.0254 48.361 90.1328 48.6279C90.3118 48.4163 90.5218 48.2438 90.7627 48.1104C91.0036 47.9769 91.2542 47.9102 91.5146 47.9102ZM96.0215 52.5488C95.3672 52.5488 94.8675 52.3535 94.5225 51.9629C94.1807 51.569 94.0098 50.9977 94.0098 50.249C94.0098 49.5003 94.1839 48.9242 94.5322 48.5205C94.8805 48.1136 95.377 47.9102 96.0215 47.9102C96.6595 47.9102 97.1478 48.112 97.4863 48.5156C97.8249 48.916 97.9941 49.4938 97.9941 50.249C97.9941 51.001 97.8265 51.5723 97.4912 51.9629C97.1592 52.3535 96.6693 52.5488 96.0215 52.5488ZM95.9971 51.9238C96.4202 51.9238 96.7327 51.7871 96.9346 51.5137C97.1364 51.237 97.2373 50.8105 97.2373 50.2344C97.2373 49.6549 97.1364 49.2269 96.9346 48.9502C96.7327 48.6735 96.4202 48.5352 95.9971 48.5352C95.5771 48.5352 95.2679 48.6735 95.0693 48.9502C94.8708 49.2236 94.7715 49.6517 94.7715 50.2344C94.7715 50.8138 94.8691 51.2402 95.0645 51.5137C95.263 51.7871 95.5739 51.9238 95.9971 51.9238ZM100.157 52.583C99.9131 52.583 99.6852 52.5521 99.4736 52.4902C99.262 52.4284 99.0928 52.3535 98.9658 52.2656C98.8421 52.1745 98.7803 52.0947 98.7803 52.0264C98.7803 51.9938 98.7965 51.9417 98.8291 51.8701C98.8649 51.7985 98.9056 51.735 98.9512 51.6797C99 51.6211 99.0439 51.5918 99.083 51.5918C99.0928 51.5918 99.1221 51.6081 99.1709 51.6406C99.3011 51.7253 99.4378 51.7969 99.5811 51.8555C99.7275 51.9141 99.9017 51.9434 100.104 51.9434C100.67 51.9434 100.953 51.709 100.953 51.2402C100.953 51.1068 100.925 50.9945 100.87 50.9033C100.818 50.8122 100.729 50.7324 100.602 50.6641C100.478 50.5924 100.307 50.5241 100.089 50.459C99.7764 50.3678 99.5322 50.2637 99.3564 50.1465C99.1839 50.0293 99.0618 49.8926 98.9902 49.7363C98.9186 49.5768 98.8828 49.3848 98.8828 49.1602C98.8828 48.9193 98.943 48.7028 99.0635 48.5107C99.1872 48.3187 99.3581 48.1689 99.5762 48.0615C99.7975 47.9541 100.047 47.9004 100.323 47.9004C100.515 47.9004 100.699 47.9183 100.875 47.9541C101.054 47.9899 101.197 48.0371 101.305 48.0957C101.415 48.151 101.471 48.2096 101.471 48.2715C101.471 48.3171 101.454 48.3789 101.422 48.457C101.393 48.5319 101.355 48.5986 101.31 48.6572C101.264 48.7126 101.223 48.7402 101.188 48.7402C101.181 48.7402 101.14 48.7207 101.065 48.6816C100.991 48.6393 100.895 48.6019 100.777 48.5693C100.663 48.5335 100.536 48.5156 100.396 48.5156C100.175 48.5156 99.9912 48.5661 99.8447 48.667C99.7015 48.7646 99.6299 48.8965 99.6299 49.0625C99.6299 49.2578 99.682 49.4141 99.7861 49.5312C99.8903 49.6484 100.063 49.7445 100.304 49.8193C100.675 49.9333 100.958 50.0472 101.153 50.1611C101.349 50.2751 101.487 50.415 101.568 50.5811C101.653 50.7438 101.695 50.9587 101.695 51.2256C101.695 51.4795 101.627 51.7106 101.49 51.9189C101.354 52.124 101.168 52.2868 100.934 52.4072C100.699 52.5244 100.44 52.583 100.157 52.583ZM106.28 52.5488C105.942 52.5488 105.646 52.4512 105.392 52.2559C105.138 52.0573 104.941 51.7822 104.801 51.4307C104.664 51.0791 104.596 50.6803 104.596 50.2344C104.596 49.7428 104.669 49.3229 104.815 48.9746C104.965 48.623 105.174 48.3577 105.44 48.1787C105.707 47.9997 106.015 47.9102 106.363 47.9102C106.614 47.9102 106.835 47.9476 107.027 48.0225C107.223 48.0973 107.415 48.2064 107.604 48.3496V46.1621C107.604 46.0352 107.717 45.9717 107.945 45.9717H107.984C108.215 45.9717 108.331 46.0352 108.331 46.1621V51.2158C108.331 51.5934 108.349 51.8669 108.385 52.0361C108.421 52.2021 108.438 52.2933 108.438 52.3096C108.438 52.3812 108.383 52.4333 108.272 52.4658C108.165 52.4951 108.064 52.5098 107.97 52.5098C107.905 52.5098 107.853 52.4788 107.813 52.417C107.774 52.3551 107.747 52.2933 107.73 52.2314C107.717 52.1663 107.695 52.0557 107.662 51.8994C107.249 52.3324 106.788 52.5488 106.28 52.5488ZM106.432 51.9189C106.624 51.9189 106.822 51.8669 107.027 51.7627C107.236 51.6585 107.428 51.5104 107.604 51.3184V48.9404C107.291 48.68 106.935 48.5498 106.534 48.5498C106.147 48.5596 105.854 48.7012 105.655 48.9746C105.46 49.248 105.362 49.6452 105.362 50.166C105.362 50.7259 105.453 51.1589 105.636 51.4648C105.821 51.7676 106.087 51.9189 106.432 51.9189ZM111.666 52.5488C110.947 52.5488 110.411 52.3617 110.06 51.9873C109.711 51.6097 109.537 51.0335 109.537 50.2588C109.537 49.4906 109.708 48.9079 110.05 48.5107C110.392 48.1104 110.895 47.9102 111.559 47.9102C112.151 47.9102 112.597 48.1022 112.896 48.4863C113.199 48.8704 113.351 49.4336 113.351 50.1758C113.351 50.2083 113.333 50.2539 113.297 50.3125C113.264 50.3678 113.224 50.4183 113.175 50.4639C113.129 50.5062 113.09 50.5273 113.058 50.5273H110.318C110.354 51.0124 110.478 51.3672 110.689 51.5918C110.904 51.8132 111.227 51.9238 111.656 51.9238C111.897 51.9238 112.104 51.8945 112.276 51.8359C112.452 51.7773 112.621 51.7057 112.784 51.6211C112.8 51.6146 112.825 51.6032 112.857 51.5869C112.89 51.5706 112.913 51.5625 112.926 51.5625C112.962 51.5625 113.002 51.5918 113.048 51.6504C113.097 51.7057 113.137 51.7692 113.17 51.8408C113.206 51.9092 113.224 51.9596 113.224 51.9922C113.224 52.0638 113.152 52.1436 113.009 52.2314C112.866 52.3193 112.674 52.3942 112.433 52.4561C112.195 52.5179 111.939 52.5488 111.666 52.5488ZM112.574 49.9023C112.574 48.9909 112.228 48.5352 111.534 48.5352C110.789 48.5352 110.383 48.9909 110.318 49.9023H112.574ZM117.521 52.583C117.276 52.583 117.049 52.5521 116.837 52.4902C116.625 52.4284 116.456 52.3535 116.329 52.2656C116.205 52.1745 116.144 52.0947 116.144 52.0264C116.144 51.9938 116.16 51.9417 116.192 51.8701C116.228 51.7985 116.269 51.735 116.314 51.6797C116.363 51.6211 116.407 51.5918 116.446 51.5918C116.456 51.5918 116.485 51.6081 116.534 51.6406C116.664 51.7253 116.801 51.7969 116.944 51.8555C117.091 51.9141 117.265 51.9434 117.467 51.9434C118.033 51.9434 118.316 51.709 118.316 51.2402C118.316 51.1068 118.289 50.9945 118.233 50.9033C118.181 50.8122 118.092 50.7324 117.965 50.6641C117.841 50.5924 117.67 50.5241 117.452 50.459C117.14 50.3678 116.896 50.2637 116.72 50.1465C116.547 50.0293 116.425 49.8926 116.354 49.7363C116.282 49.5768 116.246 49.3848 116.246 49.1602C116.246 48.9193 116.306 48.7028 116.427 48.5107C116.55 48.3187 116.721 48.1689 116.939 48.0615C117.161 47.9541 117.41 47.9004 117.687 47.9004C117.879 47.9004 118.062 47.9183 118.238 47.9541C118.417 47.9899 118.561 48.0371 118.668 48.0957C118.779 48.151 118.834 48.2096 118.834 48.2715C118.834 48.3171 118.818 48.3789 118.785 48.457C118.756 48.5319 118.718 48.5986 118.673 48.6572C118.627 48.7126 118.587 48.7402 118.551 48.7402C118.544 48.7402 118.504 48.7207 118.429 48.6816C118.354 48.6393 118.258 48.6019 118.141 48.5693C118.027 48.5335 117.9 48.5156 117.76 48.5156C117.538 48.5156 117.354 48.5661 117.208 48.667C117.065 48.7646 116.993 48.8965 116.993 49.0625C116.993 49.2578 117.045 49.4141 117.149 49.5312C117.254 49.6484 117.426 49.7445 117.667 49.8193C118.038 49.9333 118.321 50.0472 118.517 50.1611C118.712 50.2751 118.85 50.415 118.932 50.5811C119.016 50.7438 119.059 50.9587 119.059 51.2256C119.059 51.4795 118.99 51.7106 118.854 51.9189C118.717 52.124 118.531 52.2868 118.297 52.4072C118.062 52.5244 117.804 52.583 117.521 52.583ZM121.485 52.5488C121.043 52.5488 120.696 52.4251 120.445 52.1777C120.195 51.9271 120.069 51.582 120.069 51.1426V48.1348C120.069 48.0078 120.187 47.9443 120.421 47.9443H120.455C120.686 47.9443 120.802 48.0078 120.802 48.1348V51.0742C120.802 51.3411 120.878 51.5495 121.031 51.6992C121.188 51.8457 121.406 51.9189 121.686 51.9189C121.881 51.9189 122.076 51.8652 122.271 51.7578C122.467 51.6471 122.636 51.4974 122.779 51.3086V48.1348C122.779 48.0078 122.895 47.9443 123.126 47.9443H123.16C123.395 47.9443 123.512 48.0078 123.512 48.1348V51.2158C123.512 51.5934 123.528 51.8669 123.561 52.0361C123.593 52.2021 123.609 52.2933 123.609 52.3096C123.609 52.3812 123.556 52.4333 123.448 52.4658C123.341 52.4951 123.24 52.5098 123.146 52.5098C123.064 52.5098 123.004 52.4642 122.965 52.373C122.926 52.2786 122.896 52.1826 122.877 52.085C122.861 51.9873 122.849 51.9255 122.843 51.8994C122.66 52.1045 122.449 52.264 122.208 52.3779C121.97 52.4919 121.729 52.5488 121.485 52.5488ZM126.163 52.5488C125.72 52.5488 125.362 52.4398 125.089 52.2217C124.815 52.0036 124.679 51.6797 124.679 51.25C124.679 50.7975 124.817 50.4574 125.094 50.2295C125.37 49.9984 125.707 49.8503 126.104 49.7852C126.505 49.7168 126.99 49.6777 127.56 49.668V49.2578C127.56 49.0397 127.485 48.8656 127.335 48.7354C127.188 48.6019 126.946 48.5352 126.607 48.5352C126.35 48.5352 126.124 48.5661 125.929 48.6279C125.737 48.6865 125.556 48.7581 125.387 48.8428C125.315 48.8786 125.271 48.8965 125.255 48.8965C125.216 48.8965 125.172 48.8688 125.123 48.8135C125.077 48.7549 125.037 48.6898 125.001 48.6182C124.968 48.5465 124.952 48.4945 124.952 48.4619C124.952 48.387 125.029 48.3057 125.182 48.2178C125.338 48.1299 125.541 48.0566 125.792 47.998C126.043 47.9395 126.305 47.9102 126.578 47.9102C127.122 47.9102 127.543 48.029 127.843 48.2666C128.142 48.5042 128.292 48.8379 128.292 49.2676V51.2158C128.292 51.5934 128.308 51.8669 128.341 52.0361C128.377 52.2021 128.395 52.2933 128.395 52.3096C128.395 52.3812 128.339 52.4333 128.229 52.4658C128.121 52.4951 128.02 52.5098 127.926 52.5098C127.848 52.5098 127.789 52.4658 127.75 52.3779C127.714 52.29 127.678 52.1631 127.643 51.9971L127.623 51.8994C127.444 52.098 127.232 52.2559 126.988 52.373C126.747 52.4902 126.472 52.5488 126.163 52.5488ZM126.202 51.9189C126.489 51.9189 126.733 51.8669 126.935 51.7627C127.136 51.6585 127.345 51.5104 127.56 51.3184V50.293C127.13 50.2962 126.777 50.3141 126.5 50.3467C126.223 50.3792 125.981 50.4622 125.772 50.5957C125.564 50.7259 125.46 50.9294 125.46 51.2061C125.46 51.4372 125.522 51.6146 125.646 51.7383C125.772 51.8587 125.958 51.9189 126.202 51.9189ZM132.765 52.583C132.521 52.583 132.293 52.5521 132.081 52.4902C131.869 52.4284 131.7 52.3535 131.573 52.2656C131.45 52.1745 131.388 52.0947 131.388 52.0264C131.388 51.9938 131.404 51.9417 131.437 51.8701C131.472 51.7985 131.513 51.735 131.559 51.6797C131.607 51.6211 131.651 51.5918 131.69 51.5918C131.7 51.5918 131.729 51.6081 131.778 51.6406C131.909 51.7253 132.045 51.7969 132.188 51.8555C132.335 51.9141 132.509 51.9434 132.711 51.9434C133.277 51.9434 133.561 51.709 133.561 51.2402C133.561 51.1068 133.533 50.9945 133.478 50.9033C133.425 50.8122 133.336 50.7324 133.209 50.6641C133.085 50.5924 132.914 50.5241 132.696 50.459C132.384 50.3678 132.14 50.2637 131.964 50.1465C131.791 50.0293 131.669 49.8926 131.598 49.7363C131.526 49.5768 131.49 49.3848 131.49 49.1602C131.49 48.9193 131.55 48.7028 131.671 48.5107C131.795 48.3187 131.965 48.1689 132.184 48.0615C132.405 47.9541 132.654 47.9004 132.931 47.9004C133.123 47.9004 133.307 47.9183 133.482 47.9541C133.661 47.9899 133.805 48.0371 133.912 48.0957C134.023 48.151 134.078 48.2096 134.078 48.2715C134.078 48.3171 134.062 48.3789 134.029 48.457C134 48.5319 133.963 48.5986 133.917 48.6572C133.871 48.7126 133.831 48.7402 133.795 48.7402C133.788 48.7402 133.748 48.7207 133.673 48.6816C133.598 48.6393 133.502 48.6019 133.385 48.5693C133.271 48.5335 133.144 48.5156 133.004 48.5156C132.783 48.5156 132.599 48.5661 132.452 48.667C132.309 48.7646 132.237 48.8965 132.237 49.0625C132.237 49.2578 132.289 49.4141 132.394 49.5312C132.498 49.6484 132.67 49.7445 132.911 49.8193C133.282 49.9333 133.565 50.0472 133.761 50.1611C133.956 50.2751 134.094 50.415 134.176 50.5811C134.26 50.7438 134.303 50.9587 134.303 51.2256C134.303 51.4795 134.234 51.7106 134.098 51.9189C133.961 52.124 133.775 52.2868 133.541 52.4072C133.307 52.5244 133.048 52.583 132.765 52.583ZM136.573 52.5488C136.131 52.5488 135.772 52.4398 135.499 52.2217C135.226 52.0036 135.089 51.6797 135.089 51.25C135.089 50.7975 135.227 50.4574 135.504 50.2295C135.781 49.9984 136.118 49.8503 136.515 49.7852C136.915 49.7168 137.4 49.6777 137.97 49.668V49.2578C137.97 49.0397 137.895 48.8656 137.745 48.7354C137.599 48.6019 137.356 48.5352 137.018 48.5352C136.76 48.5352 136.534 48.5661 136.339 48.6279C136.147 48.6865 135.966 48.7581 135.797 48.8428C135.725 48.8786 135.681 48.8965 135.665 48.8965C135.626 48.8965 135.582 48.8688 135.533 48.8135C135.488 48.7549 135.447 48.6898 135.411 48.6182C135.379 48.5465 135.362 48.4945 135.362 48.4619C135.362 48.387 135.439 48.3057 135.592 48.2178C135.748 48.1299 135.951 48.0566 136.202 47.998C136.453 47.9395 136.715 47.9102 136.988 47.9102C137.532 47.9102 137.953 48.029 138.253 48.2666C138.552 48.5042 138.702 48.8379 138.702 49.2676V51.2158C138.702 51.5934 138.718 51.8669 138.751 52.0361C138.787 52.2021 138.805 52.2933 138.805 52.3096C138.805 52.3812 138.749 52.4333 138.639 52.4658C138.531 52.4951 138.43 52.5098 138.336 52.5098C138.258 52.5098 138.199 52.4658 138.16 52.3779C138.124 52.29 138.089 52.1631 138.053 51.9971L138.033 51.8994C137.854 52.098 137.643 52.2559 137.398 52.373C137.158 52.4902 136.882 52.5488 136.573 52.5488ZM136.612 51.9189C136.899 51.9189 137.143 51.8669 137.345 51.7627C137.547 51.6585 137.755 51.5104 137.97 51.3184V50.293C137.54 50.2962 137.187 50.3141 136.91 50.3467C136.633 50.3792 136.391 50.4622 136.183 50.5957C135.974 50.7259 135.87 50.9294 135.87 51.2061C135.87 51.4372 135.932 51.6146 136.056 51.7383C136.183 51.8587 136.368 51.9189 136.612 51.9189ZM141.466 52.5488C141.023 52.5488 140.676 52.4251 140.426 52.1777C140.175 51.9271 140.05 51.582 140.05 51.1426V48.1348C140.05 48.0078 140.167 47.9443 140.401 47.9443H140.436C140.667 47.9443 140.782 48.0078 140.782 48.1348V51.0742C140.782 51.3411 140.859 51.5495 141.012 51.6992C141.168 51.8457 141.386 51.9189 141.666 51.9189C141.861 51.9189 142.057 51.8652 142.252 51.7578C142.447 51.6471 142.617 51.4974 142.76 51.3086V48.1348C142.76 48.0078 142.875 47.9443 143.106 47.9443H143.141C143.375 47.9443 143.492 48.0078 143.492 48.1348V51.2158C143.492 51.5934 143.508 51.8669 143.541 52.0361C143.574 52.2021 143.59 52.2933 143.59 52.3096C143.59 52.3812 143.536 52.4333 143.429 52.4658C143.321 52.4951 143.22 52.5098 143.126 52.5098C143.045 52.5098 142.984 52.4642 142.945 52.373C142.906 52.2786 142.877 52.1826 142.857 52.085C142.841 51.9873 142.83 51.9255 142.823 51.8994C142.641 52.1045 142.429 52.264 142.188 52.3779C141.951 52.4919 141.71 52.5488 141.466 52.5488ZM141.671 47.417C141.537 47.417 141.471 47.3893 141.471 47.334C141.471 47.2949 141.5 47.2201 141.559 47.1094C141.617 46.9987 141.757 46.7513 141.979 46.3672C142.024 46.2891 142.089 46.2321 142.174 46.1963C142.262 46.1605 142.376 46.1426 142.516 46.1426C142.662 46.1426 142.768 46.1507 142.833 46.167C142.898 46.1833 142.931 46.2142 142.931 46.2598C142.931 46.2891 142.918 46.3232 142.892 46.3623C142.866 46.4014 142.802 46.4779 142.701 46.5918C142.604 46.7057 142.478 46.8506 142.325 47.0264L142.115 47.2656C142.07 47.3145 142.008 47.3519 141.93 47.3779C141.852 47.404 141.765 47.417 141.671 47.417ZM146.368 52.5488C146.03 52.5488 145.733 52.4512 145.479 52.2559C145.226 52.0573 145.029 51.7822 144.889 51.4307C144.752 51.0791 144.684 50.6803 144.684 50.2344C144.684 49.7428 144.757 49.3229 144.903 48.9746C145.053 48.623 145.261 48.3577 145.528 48.1787C145.795 47.9997 146.103 47.9102 146.451 47.9102C146.702 47.9102 146.923 47.9476 147.115 48.0225C147.311 48.0973 147.503 48.2064 147.691 48.3496V46.1621C147.691 46.0352 147.805 45.9717 148.033 45.9717H148.072C148.303 45.9717 148.419 46.0352 148.419 46.1621V51.2158C148.419 51.5934 148.437 51.8669 148.473 52.0361C148.508 52.2021 148.526 52.2933 148.526 52.3096C148.526 52.3812 148.471 52.4333 148.36 52.4658C148.253 52.4951 148.152 52.5098 148.058 52.5098C147.993 52.5098 147.94 52.4788 147.901 52.417C147.862 52.3551 147.835 52.2933 147.818 52.2314C147.805 52.1663 147.783 52.0557 147.75 51.8994C147.337 52.3324 146.876 52.5488 146.368 52.5488ZM146.52 51.9189C146.712 51.9189 146.91 51.8669 147.115 51.7627C147.324 51.6585 147.516 51.5104 147.691 51.3184V48.9404C147.379 48.68 147.022 48.5498 146.622 48.5498C146.235 48.5596 145.942 48.7012 145.743 48.9746C145.548 49.248 145.45 49.6452 145.45 50.166C145.45 50.7259 145.541 51.1589 145.724 51.4648C145.909 51.7676 146.174 51.9189 146.52 51.9189ZM151.754 52.5488C151.035 52.5488 150.499 52.3617 150.147 51.9873C149.799 51.6097 149.625 51.0335 149.625 50.2588C149.625 49.4906 149.796 48.9079 150.138 48.5107C150.479 48.1104 150.982 47.9102 151.646 47.9102C152.239 47.9102 152.685 48.1022 152.984 48.4863C153.287 48.8704 153.438 49.4336 153.438 50.1758C153.438 50.2083 153.421 50.2539 153.385 50.3125C153.352 50.3678 153.312 50.4183 153.263 50.4639C153.217 50.5062 153.178 50.5273 153.146 50.5273H150.406C150.442 51.0124 150.566 51.3672 150.777 51.5918C150.992 51.8132 151.314 51.9238 151.744 51.9238C151.985 51.9238 152.192 51.8945 152.364 51.8359C152.54 51.7773 152.709 51.7057 152.872 51.6211C152.888 51.6146 152.913 51.6032 152.945 51.5869C152.978 51.5706 153.001 51.5625 153.014 51.5625C153.049 51.5625 153.09 51.5918 153.136 51.6504C153.185 51.7057 153.225 51.7692 153.258 51.8408C153.294 51.9092 153.312 51.9596 153.312 51.9922C153.312 52.0638 153.24 52.1436 153.097 52.2314C152.953 52.3193 152.761 52.3942 152.521 52.4561C152.283 52.5179 152.027 52.5488 151.754 52.5488ZM152.662 49.9023C152.662 48.9909 152.315 48.5352 151.622 48.5352C150.877 48.5352 150.471 48.9909 150.406 49.9023H152.662ZM157.208 52.5146C157.088 52.5146 157 52.5 156.944 52.4707C156.889 52.4382 156.861 52.3893 156.861 52.3242V48.584H156.515C156.397 48.584 156.339 48.4977 156.339 48.3252V48.2178C156.339 48.0452 156.397 47.959 156.515 47.959H156.861V47.1338C156.861 46.6781 156.974 46.3656 157.198 46.1963C157.426 46.0238 157.687 45.9375 157.979 45.9375C158.403 45.9375 158.614 46.0254 158.614 46.2012C158.614 46.2305 158.606 46.2793 158.59 46.3477C158.577 46.4128 158.556 46.4714 158.526 46.5234C158.5 46.5755 158.469 46.6016 158.434 46.6016C158.414 46.6016 158.373 46.5951 158.312 46.582C158.25 46.569 158.165 46.5625 158.058 46.5625C157.96 46.5625 157.877 46.5771 157.809 46.6064C157.743 46.6357 157.69 46.6976 157.647 46.792C157.608 46.8864 157.589 47.0231 157.589 47.2021V47.959H158.346C158.408 47.959 158.451 47.9801 158.478 48.0225C158.507 48.0615 158.521 48.1266 158.521 48.2178V48.3252C158.521 48.4163 158.507 48.4831 158.478 48.5254C158.451 48.5645 158.408 48.584 158.346 48.584H157.589V52.3242C157.589 52.3893 157.561 52.4382 157.506 52.4707C157.451 52.5 157.364 52.5146 157.247 52.5146H157.208ZM159.884 52.5146C159.653 52.5146 159.537 52.4512 159.537 52.3242V48.1348C159.537 48.0078 159.653 47.9443 159.884 47.9443H159.918C160.152 47.9443 160.27 48.0078 160.27 48.1348V52.3242C160.27 52.4512 160.152 52.5146 159.918 52.5146H159.884ZM159.752 47.417C159.618 47.417 159.552 47.3893 159.552 47.334C159.552 47.2949 159.581 47.2201 159.64 47.1094C159.698 46.9987 159.838 46.7513 160.06 46.3672C160.105 46.2891 160.17 46.2321 160.255 46.1963C160.343 46.1605 160.457 46.1426 160.597 46.1426C160.743 46.1426 160.849 46.1507 160.914 46.167C160.979 46.1833 161.012 46.2142 161.012 46.2598C161.012 46.2891 160.999 46.3232 160.973 46.3623C160.947 46.4014 160.883 46.4779 160.782 46.5918C160.685 46.7057 160.559 46.8506 160.406 47.0264L160.196 47.2656C160.151 47.3145 160.089 47.3519 160.011 47.3779C159.933 47.404 159.846 47.417 159.752 47.417ZM162.735 52.583C162.491 52.583 162.263 52.5521 162.052 52.4902C161.84 52.4284 161.671 52.3535 161.544 52.2656C161.42 52.1745 161.358 52.0947 161.358 52.0264C161.358 51.9938 161.375 51.9417 161.407 51.8701C161.443 51.7985 161.484 51.735 161.529 51.6797C161.578 51.6211 161.622 51.5918 161.661 51.5918C161.671 51.5918 161.7 51.6081 161.749 51.6406C161.879 51.7253 162.016 51.7969 162.159 51.8555C162.306 51.9141 162.48 51.9434 162.682 51.9434C163.248 51.9434 163.531 51.709 163.531 51.2402C163.531 51.1068 163.504 50.9945 163.448 50.9033C163.396 50.8122 163.307 50.7324 163.18 50.6641C163.056 50.5924 162.885 50.5241 162.667 50.459C162.354 50.3678 162.11 50.2637 161.935 50.1465C161.762 50.0293 161.64 49.8926 161.568 49.7363C161.497 49.5768 161.461 49.3848 161.461 49.1602C161.461 48.9193 161.521 48.7028 161.642 48.5107C161.765 48.3187 161.936 48.1689 162.154 48.0615C162.376 47.9541 162.625 47.9004 162.901 47.9004C163.093 47.9004 163.277 47.9183 163.453 47.9541C163.632 47.9899 163.775 48.0371 163.883 48.0957C163.993 48.151 164.049 48.2096 164.049 48.2715C164.049 48.3171 164.033 48.3789 164 48.457C163.971 48.5319 163.933 48.5986 163.888 48.6572C163.842 48.7126 163.801 48.7402 163.766 48.7402C163.759 48.7402 163.718 48.7207 163.644 48.6816C163.569 48.6393 163.473 48.6019 163.355 48.5693C163.242 48.5335 163.115 48.5156 162.975 48.5156C162.753 48.5156 162.569 48.5661 162.423 48.667C162.28 48.7646 162.208 48.8965 162.208 49.0625C162.208 49.2578 162.26 49.4141 162.364 49.5312C162.468 49.6484 162.641 49.7445 162.882 49.8193C163.253 49.9333 163.536 50.0472 163.731 50.1611C163.927 50.2751 164.065 50.415 164.146 50.5811C164.231 50.7438 164.273 50.9587 164.273 51.2256C164.273 51.4795 164.205 51.7106 164.068 51.9189C163.932 52.124 163.746 52.2868 163.512 52.4072C163.277 52.5244 163.019 52.583 162.735 52.583ZM165.738 46.8652C165.507 46.8652 165.392 46.8018 165.392 46.6748V46.1621C165.392 46.0352 165.507 45.9717 165.738 45.9717H165.841C166.075 45.9717 166.192 46.0352 166.192 46.1621V46.6748C166.192 46.8018 166.075 46.8652 165.841 46.8652H165.738ZM165.772 52.5146C165.541 52.5146 165.426 52.4512 165.426 52.3242V48.1348C165.426 48.0078 165.541 47.9443 165.772 47.9443H165.807C166.041 47.9443 166.158 48.0078 166.158 48.1348V52.3242C166.158 52.4512 166.041 52.5146 165.807 52.5146H165.772ZM169.527 52.5488C168.808 52.5488 168.271 52.3649 167.916 51.9971C167.564 51.626 167.389 51.0303 167.389 50.21C167.389 49.3799 167.586 48.7891 167.979 48.4375C168.373 48.0859 168.863 47.9102 169.449 47.9102C169.667 47.9102 169.877 47.9297 170.079 47.9688C170.281 48.0046 170.444 48.0534 170.567 48.1152C170.691 48.1771 170.753 48.2422 170.753 48.3105C170.753 48.3561 170.737 48.4163 170.704 48.4912C170.675 48.5661 170.637 48.6328 170.592 48.6914C170.549 48.7467 170.51 48.7744 170.475 48.7744C170.465 48.7744 170.45 48.7712 170.431 48.7646C170.411 48.7549 170.393 48.7467 170.377 48.7402C170.084 48.6035 169.768 48.5352 169.43 48.5352C169.029 48.5352 168.72 48.667 168.502 48.9307C168.284 49.1911 168.175 49.611 168.175 50.1904C168.175 50.6006 168.219 50.9326 168.307 51.1865C168.395 51.4372 168.536 51.6227 168.731 51.7432C168.93 51.8636 169.194 51.9238 169.522 51.9238C169.884 51.9238 170.209 51.849 170.499 51.6992C170.528 51.6927 170.549 51.6862 170.562 51.6797C170.579 51.6699 170.59 51.665 170.597 51.665C170.632 51.665 170.673 51.6927 170.719 51.748C170.764 51.8034 170.803 51.8669 170.836 51.9385C170.872 52.0101 170.89 52.0671 170.89 52.1094C170.89 52.1777 170.828 52.2461 170.704 52.3145C170.58 52.3828 170.413 52.4398 170.201 52.4854C169.993 52.5277 169.768 52.5488 169.527 52.5488ZM173.058 52.5488C172.615 52.5488 172.257 52.4398 171.983 52.2217C171.71 52.0036 171.573 51.6797 171.573 51.25C171.573 50.7975 171.712 50.4574 171.988 50.2295C172.265 49.9984 172.602 49.8503 172.999 49.7852C173.399 49.7168 173.884 49.6777 174.454 49.668V49.2578C174.454 49.0397 174.379 48.8656 174.229 48.7354C174.083 48.6019 173.84 48.5352 173.502 48.5352C173.245 48.5352 173.019 48.5661 172.823 48.6279C172.631 48.6865 172.451 48.7581 172.281 48.8428C172.21 48.8786 172.166 48.8965 172.149 48.8965C172.11 48.8965 172.066 48.8688 172.018 48.8135C171.972 48.7549 171.931 48.6898 171.896 48.6182C171.863 48.5465 171.847 48.4945 171.847 48.4619C171.847 48.387 171.923 48.3057 172.076 48.2178C172.232 48.1299 172.436 48.0566 172.687 47.998C172.937 47.9395 173.199 47.9102 173.473 47.9102C174.016 47.9102 174.438 48.029 174.737 48.2666C175.037 48.5042 175.187 48.8379 175.187 49.2676V51.2158C175.187 51.5934 175.203 51.8669 175.235 52.0361C175.271 52.2021 175.289 52.2933 175.289 52.3096C175.289 52.3812 175.234 52.4333 175.123 52.4658C175.016 52.4951 174.915 52.5098 174.82 52.5098C174.742 52.5098 174.684 52.4658 174.645 52.3779C174.609 52.29 174.573 52.1631 174.537 51.9971L174.518 51.8994C174.339 52.098 174.127 52.2559 173.883 52.373C173.642 52.4902 173.367 52.5488 173.058 52.5488ZM173.097 51.9189C173.383 51.9189 173.627 51.8669 173.829 51.7627C174.031 51.6585 174.239 51.5104 174.454 51.3184V50.293C174.024 50.2962 173.671 50.3141 173.395 50.3467C173.118 50.3792 172.875 50.4622 172.667 50.5957C172.459 50.7259 172.354 50.9294 172.354 51.2061C172.354 51.4372 172.416 51.6146 172.54 51.7383C172.667 51.8587 172.853 51.9189 173.097 51.9189ZM180.582 52.5488C179.863 52.5488 179.327 52.3617 178.976 51.9873C178.627 51.6097 178.453 51.0335 178.453 50.2588C178.453 49.4906 178.624 48.9079 178.966 48.5107C179.308 48.1104 179.811 47.9102 180.475 47.9102C181.067 47.9102 181.513 48.1022 181.812 48.4863C182.115 48.8704 182.267 49.4336 182.267 50.1758C182.267 50.2083 182.249 50.2539 182.213 50.3125C182.18 50.3678 182.14 50.4183 182.091 50.4639C182.045 50.5062 182.006 50.5273 181.974 50.5273H179.234C179.27 51.0124 179.394 51.3672 179.605 51.5918C179.82 51.8132 180.143 51.9238 180.572 51.9238C180.813 51.9238 181.02 51.8945 181.192 51.8359C181.368 51.7773 181.537 51.7057 181.7 51.6211C181.716 51.6146 181.741 51.6032 181.773 51.5869C181.806 51.5706 181.829 51.5625 181.842 51.5625C181.878 51.5625 181.918 51.5918 181.964 51.6504C182.013 51.7057 182.053 51.7692 182.086 51.8408C182.122 51.9092 182.14 51.9596 182.14 51.9922C182.14 52.0638 182.068 52.1436 181.925 52.2314C181.782 52.3193 181.59 52.3942 181.349 52.4561C181.111 52.5179 180.855 52.5488 180.582 52.5488ZM181.49 49.9023C181.49 48.9909 181.144 48.5352 180.45 48.5352C179.705 48.5352 179.299 48.9909 179.234 49.9023H181.49ZM190.099 47.9102C190.46 47.9102 190.777 48.0127 191.051 48.2178C191.324 48.4229 191.461 48.7874 191.461 49.3115V52.3242C191.461 52.3893 191.433 52.4382 191.378 52.4707C191.323 52.5 191.235 52.5146 191.114 52.5146H191.085C190.961 52.5146 190.872 52.5 190.816 52.4707C190.761 52.4382 190.733 52.3893 190.733 52.3242V49.3848C190.733 49.1211 190.662 48.9144 190.519 48.7646C190.379 48.6149 190.172 48.54 189.898 48.54C189.671 48.54 189.464 48.6068 189.278 48.7402C189.096 48.8704 188.948 49.0072 188.834 49.1504C188.84 49.2285 188.844 49.2871 188.844 49.3262V52.3242C188.844 52.4512 188.727 52.5146 188.492 52.5146H188.458C188.227 52.5146 188.111 52.4512 188.111 52.3242V49.3848C188.111 49.1211 188.04 48.9144 187.896 48.7646C187.757 48.6149 187.55 48.54 187.276 48.54C187.088 48.54 186.915 48.5856 186.759 48.6768C186.603 48.7646 186.472 48.8607 186.368 48.9648C186.267 49.069 186.217 49.1276 186.217 49.1406V52.3242C186.217 52.3893 186.189 52.4382 186.134 52.4707C186.082 52.5 185.995 52.5146 185.875 52.5146H185.836C185.715 52.5146 185.628 52.5 185.572 52.4707C185.52 52.4382 185.494 52.3893 185.494 52.3242V49.2773C185.494 48.8997 185.476 48.6279 185.44 48.4619C185.405 48.2926 185.387 48.1999 185.387 48.1836C185.387 48.112 185.44 48.0615 185.548 48.0322C185.659 47.9997 185.761 47.9834 185.855 47.9834C185.937 47.9834 185.997 48.0273 186.036 48.1152C186.075 48.2031 186.103 48.2926 186.119 48.3838C186.139 48.4749 186.152 48.5335 186.158 48.5596C186.318 48.374 186.513 48.2194 186.744 48.0957C186.975 47.972 187.219 47.9102 187.477 47.9102C187.74 47.9102 187.986 47.9639 188.214 48.0713C188.442 48.1755 188.609 48.361 188.717 48.6279C188.896 48.4163 189.106 48.2438 189.347 48.1104C189.588 47.9769 189.838 47.9102 190.099 47.9102ZM194.723 52.5488C194.003 52.5488 193.468 52.3617 193.116 51.9873C192.768 51.6097 192.594 51.0335 192.594 50.2588C192.594 49.4906 192.765 48.9079 193.106 48.5107C193.448 48.1104 193.951 47.9102 194.615 47.9102C195.208 47.9102 195.654 48.1022 195.953 48.4863C196.256 48.8704 196.407 49.4336 196.407 50.1758C196.407 50.2083 196.389 50.2539 196.354 50.3125C196.321 50.3678 196.28 50.4183 196.231 50.4639C196.186 50.5062 196.147 50.5273 196.114 50.5273H193.375C193.411 51.0124 193.535 51.3672 193.746 51.5918C193.961 51.8132 194.283 51.9238 194.713 51.9238C194.954 51.9238 195.16 51.8945 195.333 51.8359C195.509 51.7773 195.678 51.7057 195.841 51.6211C195.857 51.6146 195.882 51.6032 195.914 51.5869C195.947 51.5706 195.969 51.5625 195.982 51.5625C196.018 51.5625 196.059 51.5918 196.104 51.6504C196.153 51.7057 196.194 51.7692 196.227 51.8408C196.262 51.9092 196.28 51.9596 196.28 51.9922C196.28 52.0638 196.209 52.1436 196.065 52.2314C195.922 52.3193 195.73 52.3942 195.489 52.4561C195.252 52.5179 194.996 52.5488 194.723 52.5488ZM195.631 49.9023C195.631 48.9909 195.284 48.5352 194.591 48.5352C193.845 48.5352 193.44 48.9909 193.375 49.9023H195.631ZM197.901 52.5146C197.778 52.5146 197.688 52.5 197.633 52.4707C197.577 52.4382 197.55 52.3893 197.55 52.3242V49.2773C197.55 48.8997 197.532 48.6279 197.496 48.4619C197.46 48.2926 197.442 48.1999 197.442 48.1836C197.442 48.112 197.496 48.0615 197.604 48.0322C197.714 47.9997 197.818 47.9834 197.916 47.9834C197.997 47.9834 198.058 48.0273 198.097 48.1152C198.136 48.2031 198.163 48.2926 198.18 48.3838C198.199 48.4749 198.212 48.5335 198.219 48.5596C198.401 48.3545 198.611 48.195 198.849 48.0811C199.09 47.9671 199.332 47.9102 199.576 47.9102C200.019 47.9102 200.364 48.0355 200.611 48.2861C200.862 48.5335 200.987 48.8753 200.987 49.3115V52.3242C200.987 52.3893 200.96 52.4382 200.904 52.4707C200.849 52.5 200.761 52.5146 200.641 52.5146H200.602C200.484 52.5146 200.398 52.5 200.343 52.4707C200.287 52.4382 200.26 52.3893 200.26 52.3242V49.3848C200.26 49.1178 200.182 48.9111 200.025 48.7646C199.872 48.6149 199.656 48.54 199.376 48.54C199.181 48.54 198.984 48.5954 198.785 48.7061C198.59 48.8135 198.421 48.9616 198.277 49.1504V52.3242C198.277 52.3893 198.25 52.4382 198.194 52.4707C198.139 52.5 198.053 52.5146 197.936 52.5146H197.901ZM203.688 52.5488C203.398 52.5488 203.139 52.4609 202.911 52.2852C202.683 52.1094 202.569 51.7985 202.569 51.3525V48.584H202.135C202.073 48.584 202.027 48.5645 201.998 48.5254C201.972 48.4831 201.959 48.4163 201.959 48.3252V48.2178C201.959 48.1266 201.972 48.0615 201.998 48.0225C202.027 47.9801 202.073 47.959 202.135 47.959H202.569L202.672 47.0508C202.678 46.9238 202.771 46.8604 202.95 46.8604H203.033C203.124 46.8604 203.191 46.8766 203.233 46.9092C203.276 46.9385 203.297 46.9857 203.297 47.0508V47.959H204.024C204.086 47.959 204.13 47.9801 204.156 48.0225C204.186 48.0615 204.2 48.1266 204.2 48.2178V48.3252C204.2 48.4163 204.186 48.4831 204.156 48.5254C204.13 48.5645 204.086 48.584 204.024 48.584H203.297V51.2842C203.297 51.5218 203.338 51.6878 203.419 51.7822C203.504 51.8766 203.618 51.9238 203.761 51.9238C203.871 51.9238 203.956 51.9173 204.015 51.9043C204.076 51.8913 204.117 51.8848 204.137 51.8848C204.189 51.8848 204.231 51.9368 204.264 52.041C204.299 52.1452 204.317 52.2282 204.317 52.29C204.317 52.4626 204.107 52.5488 203.688 52.5488ZM206.524 52.5488C206.082 52.5488 205.724 52.4398 205.45 52.2217C205.177 52.0036 205.04 51.6797 205.04 51.25C205.04 50.7975 205.178 50.4574 205.455 50.2295C205.732 49.9984 206.069 49.8503 206.466 49.7852C206.866 49.7168 207.351 49.6777 207.921 49.668V49.2578C207.921 49.0397 207.846 48.8656 207.696 48.7354C207.55 48.6019 207.307 48.5352 206.969 48.5352C206.712 48.5352 206.485 48.5661 206.29 48.6279C206.098 48.6865 205.917 48.7581 205.748 48.8428C205.676 48.8786 205.632 48.8965 205.616 48.8965C205.577 48.8965 205.533 48.8688 205.484 48.8135C205.439 48.7549 205.398 48.6898 205.362 48.6182C205.33 48.5465 205.313 48.4945 205.313 48.4619C205.313 48.387 205.39 48.3057 205.543 48.2178C205.699 48.1299 205.903 48.0566 206.153 47.998C206.404 47.9395 206.666 47.9102 206.939 47.9102C207.483 47.9102 207.905 48.029 208.204 48.2666C208.504 48.5042 208.653 48.8379 208.653 49.2676V51.2158C208.653 51.5934 208.67 51.8669 208.702 52.0361C208.738 52.2021 208.756 52.2933 208.756 52.3096C208.756 52.3812 208.701 52.4333 208.59 52.4658C208.482 52.4951 208.382 52.5098 208.287 52.5098C208.209 52.5098 208.15 52.4658 208.111 52.3779C208.076 52.29 208.04 52.1631 208.004 51.9971L207.984 51.8994C207.805 52.098 207.594 52.2559 207.35 52.373C207.109 52.4902 206.834 52.5488 206.524 52.5488ZM206.563 51.9189C206.85 51.9189 207.094 51.8669 207.296 51.7627C207.498 51.6585 207.706 51.5104 207.921 51.3184V50.293C207.491 50.2962 207.138 50.3141 206.861 50.3467C206.585 50.3792 206.342 50.4622 206.134 50.5957C205.925 50.7259 205.821 50.9294 205.821 51.2061C205.821 51.4372 205.883 51.6146 206.007 51.7383C206.134 51.8587 206.319 51.9189 206.563 51.9189ZM211.183 52.5488C210.893 52.5488 210.634 52.4609 210.406 52.2852C210.178 52.1094 210.064 51.7985 210.064 51.3525V46.1621C210.064 46.0352 210.18 45.9717 210.411 45.9717H210.45C210.678 45.9717 210.792 46.0352 210.792 46.1621V51.2842C210.792 51.5218 210.834 51.6878 210.919 51.7822C211.004 51.8766 211.118 51.9238 211.261 51.9238C211.368 51.9238 211.453 51.9173 211.515 51.9043C211.576 51.8913 211.617 51.8848 211.637 51.8848C211.689 51.8848 211.731 51.9368 211.764 52.041C211.799 52.1452 211.817 52.2282 211.817 52.29C211.817 52.4626 211.606 52.5488 211.183 52.5488Z" fill="black"/>
<defs>
<filter id="filter0_d_10_7" x="55" y="0" width="167" height="39" filterUnits="userSpaceOnUse" color-interpolation-filters="sRGB">
<feFlood flood-opacity="0" result="BackgroundImageFix"/>
<feColorMatrix in="SourceAlpha" type="matrix" values="0 0 0 0 0 0 0 0 0 0 0 0 0 0 0 0 0 0 127 0" result="hardAlpha"/>
<feOffset dy="4"/>
<feGaussianBlur stdDeviation="2"/>
<feComposite in2="hardAlpha" operator="out"/>
<feColorMatrix type="matrix" values="0 0 0 0 0 0 0 0 0 0 0 0 0 0 0 0 0 0 0.25 0"/>
<feBlend mode="normal" in2="BackgroundImageFix" result="effect1_dropShadow_10_7"/>
<feBlend mode="normal" in="SourceGraphic" in2="effect1_dropShadow_10_7" result="shape"/>
</filter>
</defs>
</svg>
