<svg width="48" height="48" viewBox="0 0 48 48" fill="none" xmlns="http://www.w3.org/2000/svg">
<path d="M48.002 24.0894C48.002 10.7838 37.2583 0 24.002 0C10.7458 0 0.00201416 10.7838 0.00201416 24.0894C0.00201416 35.3813 7.75514 44.8665 18.2083 47.473V31.448H13.2583V24.0894H18.2083V20.9183C18.2083 12.7222 21.902 8.9206 29.927 8.9206C31.4458 8.9206 34.0708 9.22172 35.1489 9.52284V16.1851C34.5864 16.1286 33.602 16.091 32.3739 16.091C28.4364 16.091 26.9176 17.5871 26.9176 21.4734V24.0894H34.7551L33.4051 31.448H26.9083V48C38.7958 46.5603 48.002 36.407 48.002 24.0894Z" fill="#C59FB4"/>
</svg>
