<svg width="48" height="48" viewBox="0 0 48 48" fill="none" xmlns="http://www.w3.org/2000/svg">
<path d="M47.9982 35.3997C47.9982 35.6531 47.9902 36.2029 47.9744 36.6275C47.9357 37.6665 47.8503 39.0073 47.7212 39.6182C47.5271 40.5362 47.2341 41.4027 46.852 42.1239C46.4 42.977 45.8235 43.7413 45.1383 44.4008C44.4547 45.0591 43.6631 45.613 42.7798 46.0472C42.0281 46.4166 41.1241 46.6994 40.1668 46.8857C39.5397 47.0079 38.16 47.0886 37.0896 47.1254C36.6488 47.1405 36.0788 47.1482 35.8169 47.1482L12.1813 47.1445C11.9185 47.1445 11.3486 47.1368 10.9083 47.1215C9.83095 47.0843 8.44083 47.0019 7.80741 46.8774C6.85556 46.6901 5.95711 46.4076 5.20936 46.0391C4.32473 45.6031 3.53241 45.047 2.84855 44.3863C2.16605 43.7269 1.59173 42.9635 1.14159 42.1116C0.758438 41.3866 0.465281 40.5147 0.272016 39.5914C0.145453 38.9866 0.0616875 37.6559 0.0235781 36.6235C0.00792188 36.1985 0 35.6486 0 35.3961L0.00375 12.6003C0.00375 12.3468 0.0117656 11.7971 0.0275625 11.3725C0.0662344 10.3334 0.151594 8.99269 0.280734 8.38182C0.474844 7.4638 0.767813 6.59727 1.14989 5.87605C1.60191 5.0229 2.17852 4.25868 2.86359 3.59912C3.54722 2.94092 4.33884 2.38697 5.22211 1.95278C5.97384 1.58332 6.87792 1.30058 7.83516 1.11419C8.4622 0.992076 9.84197 0.911287 10.9124 0.874577C11.3531 0.859432 11.9233 0.851791 12.185 0.851791L35.8207 0.855453C36.0835 0.855453 36.6534 0.863184 37.0937 0.87842C38.1711 0.915717 39.5611 0.998044 40.1946 1.1226C41.1464 1.30981 42.0449 1.59237 42.7927 1.96087C43.6772 2.39682 44.4696 2.95294 45.1534 3.61368C45.8359 4.27301 46.4102 5.03646 46.8604 5.88839C47.2435 6.61341 47.5367 7.48532 47.73 8.40854C47.8565 9.01335 47.9402 10.344 47.9784 11.3765C47.9941 11.8015 48.002 12.3514 48.002 12.6039L47.9982 35.3997Z" fill="url(#paint0_linear_8_35)"/>
<path d="M36.2224 11.8488C32.9726 8.71185 28.6508 6.98341 24.0461 6.98164C14.5585 6.98164 6.83669 14.4262 6.8329 23.5767C6.83168 26.5017 7.62429 29.3569 9.13057 31.8737L6.68857 40.4738L15.8135 38.166C18.3277 39.4881 21.1583 40.1849 24.0392 40.186H24.0463C33.5329 40.186 41.2554 32.7406 41.2593 23.5899C41.2611 19.1555 39.4723 14.9857 36.2224 11.8488ZM24.0463 37.3831H24.0404C21.4732 37.3822 18.9553 36.7172 16.7587 35.4604L16.2362 35.1615L10.8213 36.531L12.2667 31.4408L11.9264 30.9189C10.4943 28.7227 9.73793 26.1842 9.73905 23.5778C9.74215 15.9723 16.1602 9.78463 24.0518 9.78463C27.8731 9.78603 31.4653 11.2228 34.1665 13.8301C36.8676 16.4373 38.3544 19.9031 38.353 23.5889C38.3499 31.1951 31.9318 37.3831 24.0463 37.3831ZM31.8939 27.0521C31.4637 26.8445 29.3492 25.8413 28.9549 25.7029C28.5607 25.5645 28.274 25.4953 27.9872 25.9105C27.7006 26.3256 26.8763 27.2597 26.6253 27.5364C26.3745 27.8132 26.1236 27.8478 25.6935 27.6402C25.2634 27.4327 23.8776 26.9948 22.2348 25.582C20.9563 24.4826 20.093 23.1245 19.8422 22.7093C19.5913 22.2941 19.8155 22.0697 20.0308 21.8629C20.2242 21.6772 20.4609 21.3786 20.6759 21.1365C20.8909 20.8944 20.9627 20.7213 21.106 20.4446C21.2494 20.1678 21.1777 19.9256 21.0701 19.7181C20.9627 19.5105 20.1025 17.4694 19.7441 16.6391C19.395 15.8305 19.0403 15.9399 18.7763 15.9272C18.5257 15.9152 18.2387 15.9127 17.952 15.9127C17.6653 15.9127 17.1993 16.0164 16.8051 16.4316C16.4109 16.8467 15.2998 17.85 15.2998 19.8911C15.2998 21.9321 16.8409 23.904 17.056 24.1807C17.2711 24.4575 20.0888 28.6461 24.4032 30.4423C25.4294 30.8696 26.2305 31.1247 26.8552 31.3159C27.8855 31.6314 28.8231 31.5869 29.5642 31.4802C30.3905 31.3611 32.1088 30.477 32.4673 29.5084C32.8257 28.5396 32.8257 27.7094 32.7182 27.5365C32.6106 27.3635 32.3239 27.2597 31.8939 27.0521Z" fill="white"/>
<defs>
<linearGradient id="paint0_linear_8_35" x1="24.001" y1="0.851791" x2="24.001" y2="47.1482" gradientUnits="userSpaceOnUse">
<stop stop-color="#61FD7D"/>
<stop offset="1" stop-color="#2BB826"/>
</linearGradient>
</defs>
</svg>
