<svg width="48" height="48" viewBox="0 0 48 48" fill="none" xmlns="http://www.w3.org/2000/svg">
<path d="M20.8286 19.2536C20.2046 19.6708 19.6688 20.2068 19.252 20.831C18.8351 21.4552 18.5453 22.1554 18.399 22.8917C18.1036 24.3786 18.411 25.9219 19.2536 27.1821C20.0961 28.4424 21.4048 29.3163 22.8917 29.6117C24.3786 29.9071 25.9219 29.5997 27.1821 28.7571C28.4424 27.9146 29.3163 26.6059 29.6117 25.119C29.9071 23.6322 29.5997 22.0888 28.7571 20.8286C27.9146 19.5683 26.6059 18.6944 25.1191 18.399C23.6322 18.1036 22.0888 18.411 20.8286 19.2536ZM36.075 11.925C35.5179 11.3679 34.8429 10.9286 34.1036 10.6393C32.1643 9.87857 27.9321 9.91072 25.2 9.94286C24.7607 9.94286 24.3536 9.95357 24 9.95357C23.6464 9.95357 23.2286 9.95357 22.7786 9.94286C20.0464 9.91072 15.8357 9.86786 13.8964 10.6393C13.1571 10.9286 12.4929 11.3679 11.925 11.925C11.3571 12.4821 10.9286 13.1571 10.6393 13.8964C9.87857 15.8357 9.92143 20.0786 9.94286 22.8107C9.94286 23.25 9.95357 23.6571 9.95357 24C9.95357 24.3429 9.95357 24.75 9.94286 25.1893C9.92143 27.9214 9.87857 32.1643 10.6393 34.1036C10.9286 34.8429 11.3679 35.5071 11.925 36.075C12.4821 36.6429 13.1571 37.0714 13.8964 37.3607C15.8357 38.1214 20.0679 38.0893 22.8 38.0571C23.2393 38.0571 23.6464 38.0464 24 38.0464C24.3536 38.0464 24.7714 38.0464 25.2214 38.0571C27.9536 38.0893 32.1643 38.1321 34.1036 37.3607C34.8429 37.0714 35.5071 36.6321 36.075 36.075C36.6429 35.5179 37.0714 34.8429 37.3607 34.1036C38.1321 32.175 38.0893 27.9536 38.0571 25.2107C38.0571 24.7607 38.0464 24.3429 38.0464 23.9893C38.0464 23.6357 38.0464 23.2286 38.0571 22.7679C38.0893 20.0357 38.1321 15.8143 37.3607 13.875C37.0714 13.1357 36.6321 12.4714 36.075 11.9036V11.925ZM28.8857 16.6929C30.8237 17.9886 32.1675 20.0012 32.6217 22.2878C33.0758 24.5744 32.6029 26.9477 31.3071 28.8857C30.6655 29.8453 29.8412 30.6691 28.8812 31.3101C27.9213 31.9511 26.8444 32.3968 25.7122 32.6217C23.4256 33.0758 21.0523 32.6029 19.1143 31.3071C17.1763 30.0128 15.8319 28.0016 15.3768 25.716C14.9217 23.4304 15.3931 21.0576 16.6875 19.1196C17.9819 17.1817 19.993 15.8372 22.2786 15.3821C24.5642 14.927 26.937 15.3985 28.875 16.6929H28.8857ZM32.0143 16.5536C31.6821 16.3286 31.4143 16.0071 31.2536 15.6321C31.0929 15.2571 31.0607 14.85 31.1357 14.4429C31.2107 14.0357 31.4143 13.6821 31.6929 13.3929C31.9714 13.1036 32.3464 12.9107 32.7429 12.8357C33.1393 12.7607 33.5571 12.7929 33.9321 12.9536C34.3071 13.1143 34.6286 13.3714 34.8536 13.7036C35.0786 14.0357 35.1964 14.4321 35.1964 14.8393C35.1964 15.1071 35.1429 15.375 35.0464 15.6214C34.95 15.8679 34.7893 16.0929 34.6071 16.2857C34.425 16.4786 34.1893 16.6286 33.9429 16.7357C33.6964 16.8429 33.4286 16.8964 33.1607 16.8964C32.7536 16.8964 32.3571 16.7786 32.025 16.5536H32.0143ZM48 6.85714C48 3.075 44.925 0 41.1429 0H6.85714C3.075 0 0 3.075 0 6.85714V41.1429C0 44.925 3.075 48 6.85714 48H41.1429C44.925 48 48 44.925 48 41.1429V6.85714ZM38.25 38.25C36.2464 40.2536 33.8143 40.8857 31.0714 41.025C28.2429 41.1857 19.7571 41.1857 16.9286 41.025C14.1857 40.8857 11.7536 40.2536 9.75 38.25C7.74643 36.2464 7.11429 33.8143 6.98571 31.0714C6.825 28.2429 6.825 19.7571 6.98571 16.9286C7.125 14.1857 7.74643 11.7536 9.75 9.75C11.7536 7.74643 14.1964 7.11429 16.9286 6.98571C19.7571 6.825 28.2429 6.825 31.0714 6.98571C33.8143 7.125 36.2464 7.74643 38.25 9.75C40.2536 11.7536 40.8857 14.1857 41.0143 16.9286C41.175 19.7464 41.175 28.2214 41.0143 31.0607C40.875 33.8036 40.2536 36.2357 38.25 38.2393V38.25Z" fill="#C59FB4"/>
</svg>
