<svg width="48" height="48" viewBox="0 0 48 48" fill="none" xmlns="http://www.w3.org/2000/svg">
<path fill-rule="evenodd" clip-rule="evenodd" d="M48 6.85714C48 3.06857 44.9314 0 41.1429 0H6.85714C3.06857 0 0 3.06857 0 6.85714V41.1429C0 44.9314 3.06857 48 6.85714 48H41.1429C44.9314 48 48 44.9314 48 41.1429V6.85714Z" fill="#C59FB4"/>
<path fill-rule="evenodd" clip-rule="evenodd" d="M33.9771 19.4143C33.9771 19.6714 33.8657 19.9114 33.66 20.0743C33.4629 20.2372 33.2057 20.2629 32.9486 20.2543C31.3543 20.2114 28.86 19.6629 27.6857 18.54V29.2886C27.6857 34.2429 23.6743 38.2543 18.72 38.2543H17.7943C15.72 38.2543 13.7486 37.5 12.1543 36.2057C13.38 36.8143 14.7257 37.1743 16.1229 37.1743H17.0486C22.0029 37.1743 26.0143 33.1629 26.0143 28.2086V17.46C27.1886 18.5743 29.6829 19.1314 31.2771 19.1743C31.5343 19.1743 31.7914 19.1571 31.9886 18.9943C32.1857 18.8314 32.3057 18.5914 32.3057 18.3343C32.3057 17.1171 32.3057 15.0943 32.3057 14.0314C32.6314 14.1257 32.9657 14.2029 33.3 14.28C33.6943 14.3657 33.9771 14.7086 33.9771 15.1114C33.9771 16.1743 33.9771 18.2057 33.9771 19.4143ZM17.1943 23.2114C17.0314 23.3743 16.8171 23.46 16.5857 23.46C14.22 23.46 12.3 25.38 12.3 27.7457C12.3 29.6057 13.4914 31.1743 15.1543 31.7657C14.4257 30.9943 13.9714 29.9657 13.9714 28.8257C13.9714 26.46 15.8914 24.54 18.2571 24.54C18.4886 24.54 18.7029 24.4543 18.8657 24.2914C19.0286 24.1286 19.1143 23.9143 19.1143 23.6829V21.1114C19.1143 20.8886 19.02 20.6657 18.8657 20.5029C18.7114 20.34 18.4886 20.2543 18.2571 20.2543H17.7943C17.6743 20.2543 17.5629 20.2886 17.4429 20.2886V22.6029C17.4429 22.8343 17.3486 23.0486 17.1943 23.2114ZM28.9114 12.3343C28.2 11.6914 27.6 10.8429 27.1714 9.68572C27.0429 9.35143 26.7257 9.11143 26.3657 9.11143H25.7314C26.4771 10.7486 27.5829 11.7086 28.9114 12.3257V12.3343Z" fill="#F3E5E5"/>
<path fill-rule="evenodd" clip-rule="evenodd" d="M11.46 35.6314C11.6743 35.8457 11.9314 36.0171 12.1629 36.2057C11.2971 35.7771 10.4829 35.2457 9.78857 34.5514C8.10857 32.8714 7.16571 30.5914 7.16571 28.2086V28.14C7.16571 23.1857 11.1771 19.1743 16.1314 19.1743H16.5943C16.8257 19.1743 17.04 19.2686 17.2029 19.4229C17.3657 19.5857 17.4514 19.8 17.4514 20.0314V20.2886C12.6686 20.4771 8.83714 24.3857 8.83714 29.22V29.2886C8.83714 31.6629 9.78 33.9429 11.46 35.6314ZM32.2971 14.0314C32.2971 13.6286 32.0143 13.2771 31.62 13.2C30.66 12.9857 29.7429 12.7286 28.9029 12.3343C29.8543 13.1914 31.02 13.68 32.2886 14.0314H32.2971ZM18.2571 33.12C19.3971 33.12 20.4857 32.6657 21.2914 31.8686C22.0971 31.0714 22.5429 29.9743 22.5429 28.8343V9.97714C22.5429 9.50571 22.9286 9.12 23.4 9.12H25.7314C25.6543 8.94857 25.5686 8.79428 25.5 8.60571C25.3714 8.27143 25.0543 8.03143 24.6943 8.03143H21.7286C21.2571 8.03143 20.8714 8.41714 20.8714 8.88857V27.7457C20.8714 28.8857 20.4171 29.9743 19.62 30.78C18.8229 31.5857 17.7257 32.0314 16.5857 32.0314C16.08 32.0314 15.6 31.9286 15.1543 31.7657C15.9343 32.5886 17.0314 33.1114 18.2571 33.1114V33.12Z" fill="#F3E5E5"/>
<path fill-rule="evenodd" clip-rule="evenodd" d="M17.0571 37.1743C22.0114 37.1743 26.0229 33.1629 26.0229 28.2086V17.46C27.1971 18.5743 29.6914 19.1314 31.2857 19.1743C31.5429 19.1743 31.8 19.1572 31.9971 18.9943C32.1943 18.8314 32.3143 18.5914 32.3143 18.3343C32.3143 17.1172 32.3143 15.0943 32.3143 14.0314C31.0457 13.68 29.88 13.1914 28.9286 12.3343C27.6086 11.7172 26.4943 10.7486 25.7486 9.12001H23.4171C22.9457 9.12001 22.56 9.50572 22.56 9.97715V28.8343C22.56 29.9743 22.1057 31.0629 21.3086 31.8686C20.5114 32.6743 19.4143 33.12 18.2743 33.12C17.0486 33.12 15.9514 32.5972 15.1714 31.7743C13.5171 31.1829 12.3171 29.6143 12.3171 27.7543C12.3171 25.3886 14.2371 23.4686 16.6029 23.4686C16.8343 23.4686 17.0486 23.3829 17.2114 23.22C17.3743 23.0572 17.46 22.8429 17.46 22.6114V20.2972C12.6771 20.4857 8.84572 24.3943 8.84572 29.2286V29.2972C8.84572 31.6714 9.78858 33.9514 11.4686 35.64C11.6829 35.8543 11.94 36.0257 12.1714 36.2143C13.3971 36.8229 14.7429 37.1829 16.14 37.1829H17.0657L17.0571 37.1743Z" fill="#F3E5E5"/>
</svg>
